<svg width="373" height="313" viewBox="0 0 373 313" fill="none" xmlns="http://www.w3.org/2000/svg">
<path d="M105.478 313C160.895 313 205.82 306.073 205.82 297.528C205.82 288.984 160.895 282.057 105.478 282.057C50.0611 282.057 5.13672 288.984 5.13672 297.528C5.13672 306.073 50.0611 313 105.478 313Z" fill="#3F3D56"/>
<path d="M77.7349 71.0101H22.21V71.8035H77.7349V71.0101Z" fill="#615F78"/>
<path d="M38.0745 63.8695H37.2812V71.2085H38.0745V63.8695Z" fill="#615F78"/>
<path d="M62.2673 63.8695H61.4741V71.2085H62.2673V63.8695Z" fill="#615F78"/>
<path d="M226.859 49.1914H171.334V49.9848H226.859V49.1914Z" fill="#615F78"/>
<path d="M187.198 42.0507H186.405V49.3897H187.198V42.0507Z" fill="#615F78"/>
<path d="M211.391 42.0507H210.598V49.3897H211.391V42.0507Z" fill="#615F78"/>
<path d="M258.191 270.156H202.666V270.949H258.191V270.156Z" fill="#615F78"/>
<path d="M218.53 263.015H217.737V270.354H218.53V263.015Z" fill="#615F78"/>
<path d="M242.723 263.015H241.93V270.354H242.723V263.015Z" fill="#615F78"/>
<path d="M369.637 234.453H314.112V235.246H369.637V234.453Z" fill="#615F78"/>
<path d="M329.977 227.312H329.184V234.651H329.977V227.312Z" fill="#615F78"/>
<path d="M354.17 227.312H353.376V234.651H354.17V227.312Z" fill="#615F78"/>
<path d="M374 143.607H318.475V144.4H374V143.607Z" fill="#615F78"/>
<path d="M334.339 136.466H333.546V143.805H334.339V136.466Z" fill="#F2F2F2"/>
<path d="M358.532 136.466H357.739V143.805H358.532V136.466Z" fill="#615F78"/>
<path d="M176.887 152.335H121.362V153.128H176.887V152.335Z" fill="#615F78"/>
<path d="M137.226 145.194H136.433V152.533H137.226V145.194Z" fill="#615F78"/>
<path d="M161.419 145.194H160.625V152.533H161.419V145.194Z" fill="#615F78"/>
<path d="M314.906 211.84H259.381V212.634H314.906V211.84Z" fill="#615F78"/>
<path d="M275.245 204.7H274.452V212.039H275.245V204.7Z" fill="#615F78"/>
<path d="M299.438 204.7H298.645V212.039H299.438V204.7Z" fill="#615F78"/>
<path d="M236.774 186.848H181.249V187.641H236.774V186.848Z" fill="#615F78"/>
<path d="M197.113 179.707H196.32V187.046H197.113V179.707Z" fill="#615F78"/>
<path d="M221.306 179.707H220.513V187.046H221.306V179.707Z" fill="#615F78"/>
<path d="M161.022 108.3H105.498V109.094H161.022V108.3Z" fill="#615F78"/>
<path d="M121.362 101.16H120.568V108.499H121.362V101.16Z" fill="#615F78"/>
<path d="M145.554 101.16H144.761V108.499H145.554V101.16Z" fill="#615F78"/>
<path d="M55.5249 194.782H0V195.575H55.5249V194.782Z" fill="#615F78"/>
<path d="M15.8645 187.641H15.0713V194.98H15.8645V187.641Z" fill="#615F78"/>
<path d="M40.0574 187.641H39.2642V194.98H40.0574V187.641Z" fill="#615F78"/>
<path d="M287.124 170.583C334.217 170.583 372.394 132.397 372.394 85.2915C372.394 38.1863 334.217 0 287.124 0C240.03 0 201.854 38.1863 201.854 85.2915C201.854 132.397 240.03 170.583 287.124 170.583Z" fill="#202031"/>
<path d="M26.1461 130.027L25.3745 130.212L44.6012 210.402L45.3728 210.217L26.1461 130.027Z" fill="#2F2E41"/>
<path d="M112.419 184.666C112.419 184.666 128.68 191.41 123.524 195.377C118.368 199.344 107.66 190.617 108.056 189.426C108.453 188.236 106.47 185.459 106.47 185.459L112.419 184.666Z" fill="#FFCCCC"/>
<path d="M98.1412 131.508L103.297 136.268L104.487 150.153L108.453 164.831C108.453 164.831 115.195 178.715 114.006 181.492C112.816 184.269 115.195 185.063 115.195 185.063L106.073 188.633C106.073 188.633 96.1582 177.525 96.1582 175.145C96.1582 172.765 98.1412 131.508 98.1412 131.508Z" fill="#575A88"/>
<path d="M98.1412 131.508L103.297 136.268L104.487 150.153L108.453 164.831C108.453 164.831 115.195 178.715 114.006 181.492C112.816 184.269 115.195 185.063 115.195 185.063L106.073 188.633C106.073 188.633 96.1582 177.525 96.1582 175.145C96.1582 172.765 98.1412 131.508 98.1412 131.508Z" fill="#DA121C"/>
<path d="M146.924 274.321C146.924 274.321 144.941 283.446 144.544 284.239C144.148 285.032 152.08 287.809 152.08 287.809L161.598 281.065C161.598 281.065 157.632 272.338 157.632 270.751L146.924 274.321Z" fill="#FFCCCC"/>
<path d="M94.9683 185.459L97.7445 188.633C97.7445 188.633 155.252 195.774 156.442 206.882C157.632 217.989 165.961 270.354 161.202 271.941C156.442 273.528 144.147 279.479 144.147 276.305C144.147 273.131 136.215 229.494 137.802 221.56C137.802 221.56 69.1888 212.832 67.6024 202.914C66.016 192.997 69.1888 188.633 69.1888 188.633L94.9683 185.459Z" fill="#2F2E41"/>
<path opacity="0.1" d="M94.9683 185.459L97.7445 188.633C97.7445 188.633 155.252 195.774 156.442 206.882C157.632 217.989 165.961 270.354 161.202 271.941C156.442 273.528 144.147 279.479 144.147 276.305C144.147 273.131 136.215 229.494 137.802 221.56C137.802 221.56 69.1888 212.832 67.6024 202.914C66.016 192.997 69.1888 188.633 69.1888 188.633L94.9683 185.459Z" fill="#202031"/>
<path d="M146.131 283.445C146.131 283.445 144.544 279.875 143.751 281.065C142.958 282.255 140.182 296.14 142.958 296.14C145.734 296.14 171.117 302.487 174.686 301.694C178.256 300.901 184.998 302.091 184.205 298.124C183.412 294.157 179.446 293.76 179.446 293.76C179.446 293.76 164.771 285.032 163.978 280.669C163.185 276.305 158.822 278.685 158.822 278.685V281.462C158.822 281.462 150.493 287.809 146.131 283.445Z" fill="#2F2E41"/>
<path d="M70.7753 101.358C70.7753 101.358 73.5516 114.846 67.6025 116.036C61.6534 117.226 75.138 125.16 75.138 125.16L83.8633 129.921L90.209 123.573C90.209 123.573 84.4583 111.871 88.8209 103.143C93.1836 94.4157 70.7753 101.358 70.7753 101.358Z" fill="#9F616A"/>
<path d="M90.209 123.573L83.8633 129.921L75.138 125.16C75.138 125.16 61.6534 117.226 67.6025 116.036C71.4297 115.27 71.6439 109.415 71.3147 105.337C71.2073 104.002 71.0272 102.674 70.7753 101.358C70.7753 101.358 93.1836 94.4157 88.8209 103.143C88.1581 104.491 87.6983 105.929 87.4566 107.412C86.12 115.255 90.209 123.573 90.209 123.573Z" fill="#FFCCCC"/>
<path d="M112.419 285.826V294.95H127.49L128.68 291.38L127.093 281.859L112.419 285.826Z" fill="#FFCCCC"/>
<path d="M50.1519 193.394C50.1519 193.394 50.1519 216.799 59.6704 217.593C69.189 218.386 103.297 222.75 103.297 222.75C103.297 222.75 105.28 261.627 108.85 274.321C112.419 287.016 109.246 287.809 112.419 288.603C115.592 289.396 129.077 286.619 128.68 283.842C128.283 281.065 126.697 210.849 126.697 210.849C126.697 210.849 130.266 195.774 82.6736 188.633L50.1519 193.394Z" fill="#2F2E41"/>
<path d="M113.609 292.173C113.609 292.173 111.229 287.016 110.832 288.603C110.436 290.189 105.677 304.074 110.436 305.264C115.195 306.454 130.266 312.802 140.181 312.405C150.096 312.008 151.286 311.611 151.286 311.611C151.286 311.611 154.063 307.644 150.493 305.264C146.924 302.884 132.249 288.999 131.456 287.412C130.663 285.826 124.714 284.636 124.714 287.412C124.714 290.189 116.385 295.743 113.609 292.173Z" fill="#2F2E41"/>
<path opacity="0.1" d="M88.821 103.143C88.1581 104.491 87.6984 105.929 87.4567 107.412C85.4816 108.606 84.1609 108.3 81.6821 108.3C78.0055 108.3 76.5222 103.599 74.1465 101.16C73.9601 98.8945 70.7754 101.358 70.7754 101.358C70.7754 101.358 93.1837 94.4157 88.821 103.143Z" fill="black"/>
<path d="M80.6906 108.102C87.9189 108.102 93.7786 102.241 93.7786 95.0108C93.7786 87.7807 87.9189 81.9196 80.6906 81.9196C73.4622 81.9196 67.6025 87.7807 67.6025 95.0108C67.6025 102.241 73.4622 108.102 80.6906 108.102Z" fill="#FFCCCC"/>
<path d="M103.297 136.268C103.297 136.268 101.314 150.549 100.124 155.707C98.9343 160.864 97.3479 184.666 96.5546 187.84C95.7614 191.013 91.0022 191.807 81.4836 190.617C80.8861 190.541 80.2851 190.496 79.683 190.482C73.8212 190.295 67.1146 192.489 60.9076 194.211C57.3382 195.202 53.9313 196.036 50.9449 196.17C46.4236 196.377 45.0989 191.362 45.2536 185.935C45.4003 180.885 46.8321 175.47 48.1686 173.558C50.5761 170.115 48.2083 139.2 49.0967 129.004V129C49.2315 127.445 49.4417 126.374 49.7551 125.954C52.1347 122.78 67.6024 114.846 69.3355 115.167C71.0647 115.489 85.8463 124.764 85.8463 124.764C89.4157 124.764 89.3007 120.892 89.3007 120.892C89.3007 120.892 91.7954 125.557 96.5546 126.747C101.314 127.937 103.297 136.268 103.297 136.268Z" fill="#F01722"/>
<path d="M76.785 187.698C76.785 187.698 102.333 188.512 97.8573 191.548C93.3819 194.584 73.5515 197.361 73.1549 193.393C72.7583 189.426 76.785 187.698 76.785 187.698Z" fill="#FFCCCC"/>
<path opacity="0.1" d="M79.6833 190.482C79.7666 192.005 75.6697 195.437 74.345 197.757C73.6113 199.043 67.9319 197.349 60.908 194.211C55.518 191.791 50.2892 189.027 45.2539 185.936C45.4007 180.885 46.8324 175.47 48.169 173.558C50.5764 170.115 48.2086 139.2 49.0971 129.004V129C49.3089 128.893 49.529 128.803 49.7554 128.731H54.5147C70.7755 136.268 52.135 168.798 52.135 168.798C52.135 168.798 76.7246 189.03 79.1043 189.823C79.2603 189.853 79.4021 189.934 79.5069 190.053C79.6118 190.172 79.6739 190.323 79.6833 190.482Z" fill="black"/>
<path d="M54.5144 126.35H49.7551C49.7551 126.35 45.3925 127.541 41.823 135.475C38.2535 143.409 25.1655 168.004 36.6671 177.525C48.1687 187.046 72.7583 198.154 74.3447 195.377C75.9312 192.6 81.4837 188.236 79.104 187.443C76.7244 186.65 52.1348 166.418 52.1348 166.418C52.1348 166.418 70.7753 133.888 54.5144 126.35Z" fill="#FF1F2A"/>
<path d="M78.6767 88.9191C78.6767 88.9191 79.2511 80.9662 86.3367 84.2089C93.4224 87.4517 92.96 78.5136 90.8188 76.9341C88.6776 75.3546 88.7453 74.9638 80.914 76.0205C73.0826 77.0773 57.8784 78.8678 62.7946 94.6183C67.7108 110.369 72.1632 106.317 72.1632 106.317C72.1632 106.317 68.2554 92.1436 72.2149 94.8438L76.1744 97.5441L78.2639 97.1014L78.6767 88.9191Z" fill="#2F2E41"/>
<path d="M137.628 290.128L112.334 221.342L45.5022 216.624L28.1292 290.082L27.3574 289.9L44.8858 215.784L45.2218 215.809L112.901 220.587L112.99 220.828L138.372 289.854L137.628 290.128Z" fill="#2F2E41"/>
<path d="M236.657 232.885C243.501 232.885 249.05 227.335 249.05 220.488C249.05 213.642 243.501 208.092 236.657 208.092C229.812 208.092 224.264 213.642 224.264 220.488C224.264 227.335 229.812 232.885 236.657 232.885Z" fill="#4731BE"/>
<path d="M213.721 235.105C218.522 235.105 222.414 231.212 222.414 226.409C222.414 221.606 218.522 217.713 213.721 217.713C208.919 217.713 205.027 221.606 205.027 226.409C205.027 231.212 208.919 235.105 213.721 235.105Z" fill="#4731BE"/>
<path opacity="0.4" d="M22.1595 112.523C26.9609 112.523 30.8532 108.63 30.8532 103.827C30.8532 99.0246 26.9609 95.1313 22.1595 95.1313C17.3581 95.1313 13.4658 99.0246 13.4658 103.827C13.4658 108.63 17.3581 112.523 22.1595 112.523Z" fill="#6C63FF"/>
<path d="M188.223 293.211L187.43 293.196C187.736 284.374 188.677 275.586 190.245 266.899C193.675 248.302 199.379 236.087 207.198 230.596L207.653 231.246C189.389 244.073 188.232 292.721 188.223 293.211Z" fill="#2F2E41"/>
<path d="M198.138 293.022L197.345 293.006C197.362 292.127 197.858 271.42 206.008 265.696L206.463 266.345C198.642 271.838 198.142 292.81 198.138 293.022Z" fill="#2F2E41"/>
<path d="M212.166 231.318C214.356 231.318 216.132 229.542 216.132 227.351C216.132 225.16 214.356 223.384 212.166 223.384C209.975 223.384 208.2 225.16 208.2 227.351C208.2 229.542 209.975 231.318 212.166 231.318Z" fill="#6C63FF"/>
<path d="M210.201 265.434C212.392 265.434 214.168 263.658 214.168 261.467C214.168 259.276 212.392 257.5 210.201 257.5C208.011 257.5 206.235 259.276 206.235 261.467C206.235 263.658 208.011 265.434 210.201 265.434Z" fill="#6C63FF"/>
<path d="M196.289 233.696C197.034 238.458 195.092 242.717 195.092 242.717C195.092 242.717 191.941 239.256 191.195 234.494C190.45 229.732 192.393 225.472 192.393 225.472C192.393 225.472 195.544 228.934 196.289 233.696Z" fill="#2F2E41"/>
<path d="M209.253 245.261C204.695 246.825 200.164 245.654 200.164 245.654C200.164 245.654 203.022 241.947 207.58 240.383C212.139 238.819 216.67 239.991 216.67 239.991C216.67 239.991 213.811 243.697 209.253 245.261Z" fill="#2F2E41"/>
<path d="M209.399 275.475C207.336 276.123 205.139 276.218 203.028 275.75C204.369 274.043 206.174 272.76 208.227 272.055C210.28 271.351 212.492 271.256 214.598 271.78C213.219 273.446 211.426 274.72 209.399 275.475Z" fill="#2F2E41"/>
<path d="M68.1103 77.6024L71.0434 77.0604L73.9973 93.0547L69.3172 93.9195L66.686 79.6727C66.6004 79.2092 66.7024 78.7307 66.9695 78.3424C67.2366 77.9542 67.647 77.688 68.1103 77.6024Z" fill="#F01722"/>
<path d="M72.1635 102.35C75.449 102.35 78.1125 99.6857 78.1125 96.3993C78.1125 93.1129 75.449 90.4487 72.1635 90.4487C68.8779 90.4487 66.2144 93.1129 66.2144 96.3993C66.2144 99.6857 68.8779 102.35 72.1635 102.35Z" fill="#F01722"/>
<path d="M72.1632 99.9696C74.1346 99.9696 75.7327 98.3711 75.7327 96.3992C75.7327 94.4274 74.1346 92.8289 72.1632 92.8289C70.1919 92.8289 68.5938 94.4274 68.5938 96.3992C68.5938 98.3711 70.1919 99.9696 72.1632 99.9696Z" fill="#F2F2F2"/>
<path d="M72.1634 97.5893C72.8206 97.5893 73.3533 97.0565 73.3533 96.3992C73.3533 95.7419 72.8206 95.2091 72.1634 95.2091C71.5063 95.2091 70.9736 95.7419 70.9736 96.3992C70.9736 97.0565 71.5063 97.5893 72.1634 97.5893Z" fill="#F01722"/>
<path d="M343.858 113.561V53.5552H230.428V113.561H253.37H343.858Z" fill="#4731BE"/>
<path opacity="0.1" d="M292.299 147.187C300.185 147.187 306.577 146.563 306.577 145.794C306.577 145.024 300.185 144.401 292.299 144.401C284.414 144.401 278.021 145.024 278.021 145.794C278.021 146.563 284.414 147.187 292.299 147.187Z" fill="black"/>
<ellipse cx="246.888" cy="67.2415" rx="5.35418" ry="5.35551" fill="#3A26A4"/>
<ellipse cx="246.888" cy="83.5064" rx="5.35418" ry="5.35551" fill="#3A26A4"/>
<ellipse cx="246.888" cy="99.7713" rx="5.35418" ry="5.35551" fill="#3A26A4"/>
<rect x="258.587" y="63.4728" width="24.193" height="2.77693" fill="#8E7CEC"/>
<rect x="258.587" y="79.7377" width="24.193" height="2.77693" fill="#8E7CEC"/>
<rect x="258.587" y="96.0026" width="24.193" height="2.77692" fill="#8E7CEC"/>
<rect x="258.587" y="68.6299" width="57.9046" height="2.77693" fill="#8E7CEC"/>
<rect x="258.587" y="84.8948" width="57.9046" height="2.77693" fill="#8E7CEC"/>
<rect x="258.587" y="101.16" width="57.9046" height="2.77693" fill="#8E7CEC"/>
</svg>
