<svg width="943" height="789" viewBox="0 0 943 789" fill="none" xmlns="http://www.w3.org/2000/svg">
<path d="M265.952 789C405.68 789 518.952 771.539 518.952 750C518.952 728.461 405.68 711 265.952 711C126.224 711 12.9521 728.461 12.9521 750C12.9521 771.539 126.224 789 265.952 789Z" fill="#3F3D56"/>
<path d="M196 179H56V181H196V179Z" fill="#615F78"/>
<path d="M96 161H94V179.5H96V161Z" fill="#615F78"/>
<path d="M157 161H155V179.5H157V161Z" fill="#615F78"/>
<path d="M572 124H432V126H572V124Z" fill="#615F78"/>
<path d="M472 106H470V124.5H472V106Z" fill="#615F78"/>
<path d="M533 106H531V124.5H533V106Z" fill="#615F78"/>
<path d="M651 681H511V683H651V681Z" fill="#615F78"/>
<path d="M551 663H549V681.5H551V663Z" fill="#615F78"/>
<path d="M612 663H610V681.5H612V663Z" fill="#615F78"/>
<path d="M932 591H792V593H932V591Z" fill="#615F78"/>
<path d="M832 573H830V591.5H832V573Z" fill="#615F78"/>
<path d="M893 573H891V591.5H893V573Z" fill="#615F78"/>
<path d="M943 362H803V364H943V362Z" fill="#615F78"/>
<path d="M843 344H841V362.5H843V344Z" fill="#F2F2F2"/>
<path d="M904 344H902V362.5H904V344Z" fill="#615F78"/>
<path d="M446 384H306V386H446V384Z" fill="#615F78"/>
<path d="M346 366H344V384.5H346V366Z" fill="#615F78"/>
<path d="M407 366H405V384.5H407V366Z" fill="#615F78"/>
<path d="M794 534H654V536H794V534Z" fill="#615F78"/>
<path d="M694 516H692V534.5H694V516Z" fill="#615F78"/>
<path d="M755 516H753V534.5H755V516Z" fill="#615F78"/>
<path d="M597 471H457V473H597V471Z" fill="#615F78"/>
<path d="M497 453H495V471.5H497V453Z" fill="#615F78"/>
<path d="M558 453H556V471.5H558V453Z" fill="#615F78"/>
<path d="M406 273H266V275H406V273Z" fill="#615F78"/>
<path d="M306 255H304V273.5H306V255Z" fill="#615F78"/>
<path d="M367 255H365V273.5H367V255Z" fill="#615F78"/>
<path d="M140 491H0V493H140V491Z" fill="#615F78"/>
<path d="M40 473H38V491.5H40V473Z" fill="#615F78"/>
<path d="M101 473H99V491.5H101V473Z" fill="#615F78"/>
<path d="M723.952 430C842.693 430 938.952 333.741 938.952 215C938.952 96.2588 842.693 0 723.952 0C605.211 0 508.952 96.2588 508.952 215C508.952 333.741 605.211 430 723.952 430Z" fill="#202031"/>
<path d="M65.9248 327.767L63.9795 328.233L112.457 530.374L114.403 529.907L65.9248 327.767Z" fill="#2F2E41"/>
<path d="M283.452 465.5C283.452 465.5 324.452 482.5 311.452 492.5C298.452 502.5 271.452 480.5 272.452 477.5C273.452 474.5 268.452 467.5 268.452 467.5L283.452 465.5Z" fill="#FFCCCC"/>
<path d="M247.452 331.5L260.452 343.5L263.452 378.5L273.452 415.5C273.452 415.5 290.452 450.5 287.452 457.5C284.452 464.5 290.452 466.5 290.452 466.5L267.452 475.5C267.452 475.5 242.452 447.5 242.452 441.5C242.452 435.5 247.452 331.5 247.452 331.5Z" fill="#575A88"/>
<path d="M247.452 331.5L260.452 343.5L263.452 378.5L273.452 415.5C273.452 415.5 290.452 450.5 287.452 457.5C284.452 464.5 290.452 466.5 290.452 466.5L267.452 475.5C267.452 475.5 242.452 447.5 242.452 441.5C242.452 435.5 247.452 331.5 247.452 331.5Z" fill="#DA121C"/>
<path d="M370.452 691.5C370.452 691.5 365.452 714.5 364.452 716.5C363.452 718.5 383.452 725.5 383.452 725.5L407.452 708.5C407.452 708.5 397.452 686.5 397.452 682.5L370.452 691.5Z" fill="#FFCCCC"/>
<path d="M239.452 467.5L246.452 475.5C246.452 475.5 391.452 493.5 394.452 521.5C397.452 549.5 418.452 681.5 406.452 685.5C394.452 689.5 363.452 704.5 363.452 696.5C363.452 688.5 343.452 578.5 347.452 558.5C347.452 558.5 174.452 536.5 170.452 511.5C166.452 486.5 174.452 475.5 174.452 475.5L239.452 467.5Z" fill="#2F2E41"/>
<path opacity="0.1" d="M239.452 467.5L246.452 475.5C246.452 475.5 391.452 493.5 394.452 521.5C397.452 549.5 418.452 681.5 406.452 685.5C394.452 689.5 363.452 704.5 363.452 696.5C363.452 688.5 343.452 578.5 347.452 558.5C347.452 558.5 174.452 536.5 170.452 511.5C166.452 486.5 174.452 475.5 174.452 475.5L239.452 467.5Z" fill="#202031"/>
<path d="M368.452 714.5C368.452 714.5 364.452 705.5 362.452 708.5C360.452 711.5 353.452 746.5 360.452 746.5C367.452 746.5 431.452 762.5 440.452 760.5C449.452 758.5 466.452 761.5 464.452 751.5C462.452 741.5 452.452 740.5 452.452 740.5C452.452 740.5 415.452 718.5 413.452 707.5C411.452 696.5 400.452 702.5 400.452 702.5V709.5C400.452 709.5 379.452 725.5 368.452 714.5Z" fill="#2F2E41"/>
<path d="M178.452 255.5C178.452 255.5 185.452 289.5 170.452 292.5C155.452 295.5 189.452 315.5 189.452 315.5L211.452 327.5L227.452 311.5C227.452 311.5 212.952 282 223.952 260C234.952 238 178.452 255.5 178.452 255.5Z" fill="#9F616A"/>
<path d="M227.452 311.5L211.452 327.5L189.452 315.5C189.452 315.5 155.452 295.5 170.452 292.5C180.102 290.57 180.642 275.81 179.812 265.53C179.541 262.164 179.087 258.816 178.452 255.5C178.452 255.5 234.952 238 223.952 260C222.281 263.397 221.122 267.023 220.512 270.76C217.142 290.53 227.452 311.5 227.452 311.5Z" fill="#FFCCCC"/>
<path d="M283.452 720.5V743.5H321.452L324.452 734.5L320.452 710.5L283.452 720.5Z" fill="#FFCCCC"/>
<path d="M126.452 487.5C126.452 487.5 126.452 546.5 150.452 548.5C174.452 550.5 260.452 561.5 260.452 561.5C260.452 561.5 265.452 659.5 274.452 691.5C283.452 723.5 275.452 725.5 283.452 727.5C291.452 729.5 325.452 722.5 324.452 715.5C323.452 708.5 319.452 531.5 319.452 531.5C319.452 531.5 328.452 493.5 208.452 475.5L126.452 487.5Z" fill="#2F2E41"/>
<path d="M286.452 736.5C286.452 736.5 280.452 723.5 279.452 727.5C278.452 731.5 266.452 766.5 278.452 769.5C290.452 772.5 328.452 788.5 353.452 787.5C378.452 786.5 381.452 785.5 381.452 785.5C381.452 785.5 388.452 775.5 379.452 769.5C370.452 763.5 333.452 728.5 331.452 724.5C329.452 720.5 314.452 717.5 314.452 724.5C314.452 731.5 293.452 745.5 286.452 736.5Z" fill="#2F2E41"/>
<path opacity="0.1" d="M223.952 260C222.281 263.397 221.122 267.023 220.512 270.76C215.532 273.77 212.202 273 205.952 273C196.682 273 192.942 261.15 186.952 255C186.482 249.29 178.452 255.5 178.452 255.5C178.452 255.5 234.952 238 223.952 260Z" fill="black"/>
<path d="M203.452 272.5C221.678 272.5 236.452 257.725 236.452 239.5C236.452 221.275 221.678 206.5 203.452 206.5C185.227 206.5 170.452 221.275 170.452 239.5C170.452 257.725 185.227 272.5 203.452 272.5Z" fill="#FFCCCC"/>
<path d="M260.452 343.5C260.452 343.5 255.452 379.5 252.452 392.5C249.452 405.5 245.452 465.5 243.452 473.5C241.452 481.5 229.452 483.5 205.452 480.5C203.946 480.31 202.43 480.197 200.912 480.16C186.132 479.69 169.222 485.22 153.572 489.56C144.572 492.06 135.982 494.16 128.452 494.5C117.052 495.02 113.712 482.38 114.102 468.7C114.472 455.97 118.082 442.32 121.452 437.5C127.522 428.82 121.552 350.89 123.792 325.19V325.18C124.132 321.26 124.662 318.56 125.452 317.5C131.452 309.5 170.452 289.5 174.822 290.31C179.182 291.12 216.452 314.5 216.452 314.5C225.452 314.5 225.162 304.74 225.162 304.74C225.162 304.74 231.452 316.5 243.452 319.5C255.452 322.5 260.452 343.5 260.452 343.5Z" fill="#F01722"/>
<path d="M193.605 473.143C193.605 473.143 258.021 475.194 246.737 482.847C235.452 490.5 185.452 497.5 184.452 487.5C183.452 477.5 193.605 473.143 193.605 473.143Z" fill="#FFCCCC"/>
<path opacity="0.1" d="M200.912 480.16C201.122 484 190.792 492.65 187.452 498.5C185.602 501.74 171.282 497.47 153.572 489.56C139.982 483.46 126.798 476.492 114.102 468.7C114.472 455.97 118.082 442.32 121.452 437.5C127.522 428.82 121.552 350.89 123.792 325.19V325.18C124.326 324.909 124.881 324.681 125.452 324.5H137.452C178.452 343.5 131.452 425.5 131.452 425.5C131.452 425.5 193.452 476.5 199.452 478.5C199.846 478.575 200.203 478.778 200.467 479.079C200.732 479.38 200.888 479.76 200.912 480.16Z" fill="black"/>
<path d="M137.452 318.5H125.452C125.452 318.5 114.452 321.5 105.452 341.5C96.4522 361.5 63.4522 423.5 92.4522 447.5C121.452 471.5 183.452 499.5 187.452 492.5C191.452 485.5 205.452 474.5 199.452 472.5C193.452 470.5 131.452 419.5 131.452 419.5C131.452 419.5 178.452 337.5 137.452 318.5Z" fill="#FF1F2A"/>
<path d="M198.375 224.144C198.375 224.144 199.824 204.097 217.689 212.271C235.555 220.445 234.389 197.914 228.99 193.933C223.591 189.951 223.762 188.966 204.016 191.63C184.27 194.294 145.935 198.807 158.33 238.51C170.726 278.214 181.952 268 181.952 268C181.952 268 172.099 232.272 182.083 239.079L192.066 245.886L197.334 244.77L198.375 224.144Z" fill="#2F2E41"/>
<path d="M347.014 731.345L283.237 557.952L114.729 546.058L70.925 731.23L68.979 730.77L113.175 543.942L114.022 544.003L284.667 556.048L284.891 556.655L348.891 730.655L347.014 731.345Z" fill="#2F2E41"/>
<path d="M596.704 587.048C613.962 587.048 627.952 573.057 627.952 555.8C627.952 538.542 613.962 524.552 596.704 524.552C579.446 524.552 565.456 538.542 565.456 555.8C565.456 573.057 579.446 587.048 596.704 587.048Z" fill="#4731BE"/>
<path d="M538.872 592.644C550.978 592.644 560.792 582.83 560.792 570.724C560.792 558.618 550.978 548.804 538.872 548.804C526.766 548.804 516.952 558.618 516.952 570.724C516.952 582.83 526.766 592.644 538.872 592.644Z" fill="#4731BE"/>
<path opacity="0.4" d="M55.8723 283.644C67.9785 283.644 77.7925 273.83 77.7925 261.724C77.7925 249.618 67.9785 239.804 55.8723 239.804C43.7661 239.804 33.9521 249.618 33.9521 261.724C33.9521 273.83 43.7661 283.644 55.8723 283.644Z" fill="#6C63FF"/>
<path d="M474.583 739.118L472.583 739.079C473.357 716.841 475.729 694.688 479.683 672.792C488.331 625.911 502.712 595.122 522.426 581.28L523.574 582.917C477.522 615.25 474.606 737.882 474.583 739.118Z" fill="#2F2E41"/>
<path d="M499.583 738.639L497.583 738.6C497.626 736.385 498.876 684.186 519.426 669.758L520.574 671.395C500.854 685.241 499.593 738.107 499.583 738.639Z" fill="#2F2E41"/>
<path d="M534.952 583.098C540.475 583.098 544.952 578.621 544.952 573.098C544.952 567.575 540.475 563.098 534.952 563.098C529.429 563.098 524.952 567.575 524.952 573.098C524.952 578.621 529.429 583.098 534.952 583.098Z" fill="#6C63FF"/>
<path d="M530 669.098C535.523 669.098 540 664.621 540 659.098C540 653.575 535.523 649.098 530 649.098C524.477 649.098 520 653.575 520 659.098C520 664.621 524.477 669.098 530 669.098Z" fill="#6C63FF"/>
<path d="M494.922 589.093C496.801 601.097 491.903 611.833 491.903 611.833C491.903 611.833 483.958 603.107 482.078 591.103C480.199 579.099 485.097 568.363 485.097 568.363C485.097 568.363 493.042 577.089 494.922 589.093Z" fill="#2F2E41"/>
<path d="M527.609 618.247C516.116 622.189 504.69 619.236 504.69 619.236C504.69 619.236 511.898 609.892 523.391 605.95C534.884 602.008 546.31 604.96 546.31 604.96C546.31 604.96 539.102 614.304 527.609 618.247Z" fill="#2F2E41"/>
<path d="M527.978 694.408C522.777 696.041 517.237 696.281 511.914 695.101C515.294 690.798 519.846 687.564 525.022 685.789C530.198 684.013 535.776 683.772 541.086 685.095C537.608 689.293 533.088 692.505 527.978 694.408Z" fill="#2F2E41"/>
<path d="M171.733 195.617L179.128 194.251L186.576 234.569L174.776 236.749L168.142 200.836C167.926 199.668 168.183 198.462 168.857 197.483C169.53 196.504 170.565 195.833 171.733 195.617Z" fill="#F01722"/>
<path d="M181.952 258C190.236 258 196.952 251.284 196.952 243C196.952 234.716 190.236 228 181.952 228C173.668 228 166.952 234.716 166.952 243C166.952 251.284 173.668 258 181.952 258Z" fill="#F01722"/>
<path d="M181.952 252C186.923 252 190.952 247.971 190.952 243C190.952 238.029 186.923 234 181.952 234C176.982 234 172.952 238.029 172.952 243C172.952 247.971 176.982 252 181.952 252Z" fill="#F2F2F2"/>
<path d="M181.952 246C183.609 246 184.952 244.657 184.952 243C184.952 241.343 183.609 240 181.952 240C180.295 240 178.952 241.343 178.952 243C178.952 244.657 180.295 246 181.952 246Z" fill="#F01722"/>
<path d="M867 286.261V135H581V286.261H638.845H867Z" fill="#4731BE"/>
<path opacity="0.1" d="M737 371.024C756.882 371.024 773 369.452 773 367.512C773 365.572 756.882 364 737 364C717.118 364 701 365.572 701 367.512C701 369.452 717.118 371.024 737 371.024Z" fill="black"/>
<circle cx="622.5" cy="169.5" r="13.5" fill="#3A26A4"/>
<circle cx="622.5" cy="210.5" r="13.5" fill="#3A26A4"/>
<circle cx="622.5" cy="251.5" r="13.5" fill="#3A26A4"/>
<rect x="652" y="160" width="61" height="7" fill="#8E7CEC"/>
<rect x="652" y="201" width="61" height="7" fill="#8E7CEC"/>
<rect x="652" y="242" width="61" height="7" fill="#8E7CEC"/>
<rect x="652" y="173" width="146" height="7" fill="#8E7CEC"/>
<rect x="652" y="214" width="146" height="7" fill="#8E7CEC"/>
<rect x="652" y="255" width="146" height="7" fill="#8E7CEC"/>
</svg>
