<svg width="607" height="508" viewBox="0 0 607 508" fill="none" xmlns="http://www.w3.org/2000/svg">
<path d="M171.191 508C261.132 508 334.044 496.758 334.044 482.89C334.044 469.022 261.132 457.779 171.191 457.779C81.2492 457.779 8.33716 469.022 8.33716 482.89C8.33716 496.758 81.2492 508 171.191 508Z" fill="#3F3D56"/>
<path d="M126.163 115.25H36.0466V116.537H126.163V115.25Z" fill="#615F78"/>
<path d="M61.7942 103.66H60.5068V115.572H61.7942V103.66Z" fill="#615F78"/>
<path d="M101.059 103.66H99.772V115.572H101.059V103.66Z" fill="#615F78"/>
<path d="M368.191 79.8378H278.074V81.1255H368.191V79.8378Z" fill="#615F78"/>
<path d="M303.822 68.2484H302.534V80.1597H303.822V68.2484Z" fill="#615F78"/>
<path d="M343.087 68.2484H341.8V80.1597H343.087V68.2484Z" fill="#615F78"/>
<path d="M419.042 438.464H328.926V439.752H419.042V438.464Z" fill="#615F78"/>
<path d="M354.673 426.875H353.386V438.786H354.673V426.875Z" fill="#615F78"/>
<path d="M393.939 426.875H392.651V438.786H393.939V426.875Z" fill="#615F78"/>
<path d="M599.919 380.517H509.803V381.805H599.919V380.517Z" fill="#615F78"/>
<path d="M535.55 368.928H534.263V380.839H535.55V368.928Z" fill="#615F78"/>
<path d="M574.815 368.928H573.528V380.839H574.815V368.928Z" fill="#615F78"/>
<path d="M607 233.075H516.883V234.362H607V233.075Z" fill="#615F78"/>
<path d="M542.631 221.485H541.344V233.397H542.631V221.485Z" fill="#F2F2F2"/>
<path d="M581.896 221.485H580.609V233.397H581.896V221.485Z" fill="#615F78"/>
<path d="M287.086 247.24H196.969V248.527H287.086V247.24Z" fill="#615F78"/>
<path d="M222.717 235.65H221.429V247.561H222.717V235.65Z" fill="#615F78"/>
<path d="M261.982 235.65H260.695V247.561H261.982V235.65Z" fill="#615F78"/>
<path d="M511.09 343.818H420.973V345.105H511.09V343.818Z" fill="#615F78"/>
<path d="M446.721 332.228H445.434V344.139H446.721V332.228Z" fill="#615F78"/>
<path d="M485.986 332.228H484.699V344.139H485.986V332.228Z" fill="#615F78"/>
<path d="M384.283 303.255H294.167V304.542H384.283V303.255Z" fill="#615F78"/>
<path d="M319.914 291.666H318.627V303.577H319.914V291.666Z" fill="#615F78"/>
<path d="M359.179 291.666H357.892V303.577H359.179V291.666Z" fill="#615F78"/>
<path d="M261.338 175.772H171.222V177.06H261.338V175.772Z" fill="#615F78"/>
<path d="M196.969 164.182H195.682V176.094H196.969V164.182Z" fill="#615F78"/>
<path d="M236.234 164.182H234.947V176.094H236.234V164.182Z" fill="#615F78"/>
<path d="M90.1166 316.132H0V317.42H90.1166V316.132Z" fill="#615F78"/>
<path d="M25.7476 304.542H24.4602V316.454H25.7476V304.542Z" fill="#615F78"/>
<path d="M65.0127 304.542H63.7253V316.454H65.0127V304.542Z" fill="#615F78"/>
<path d="M466.001 276.857C542.434 276.857 604.394 214.88 604.394 138.428C604.394 61.9765 542.434 0 466.001 0C389.568 0 327.608 61.9765 327.608 138.428C327.608 214.88 389.568 276.857 466.001 276.857Z" fill="#202031"/>
<path d="M42.4353 211.034L41.1831 211.334L72.388 341.483L73.6402 341.182L42.4353 211.034Z" fill="#2F2E41"/>
<path d="M182.455 299.714C182.455 299.714 208.847 310.659 200.479 317.098C192.111 323.536 174.731 309.371 175.375 307.44C176.019 305.508 172.8 301.001 172.8 301.001L182.455 299.714Z" fill="#FFCCCC"/>
<path d="M159.283 213.437L167.651 221.163L169.582 243.698L176.019 267.521C176.019 267.521 186.961 290.056 185.03 294.563C183.099 299.07 186.961 300.357 186.961 300.357L172.156 306.152C172.156 306.152 156.064 288.124 156.064 284.261C156.064 280.398 159.283 213.437 159.283 213.437Z" fill="#575A88"/>
<path d="M159.283 213.437L167.651 221.163L169.582 243.698L176.019 267.521C176.019 267.521 186.961 290.056 185.03 294.563C183.099 299.07 186.961 300.357 186.961 300.357L172.156 306.152C172.156 306.152 156.064 288.124 156.064 284.261C156.064 280.398 159.283 213.437 159.283 213.437Z" fill="#DA121C"/>
<path d="M238.457 445.224C238.457 445.224 235.238 460.033 234.594 461.321C233.951 462.608 246.825 467.115 246.825 467.115L262.273 456.17C262.273 456.17 255.836 442.005 255.836 439.43L238.457 445.224Z" fill="#FFCCCC"/>
<path d="M154.133 301.001L158.639 306.152C158.639 306.152 251.974 317.741 253.905 335.769C255.836 353.797 269.354 438.786 261.629 441.361C253.905 443.937 233.951 453.594 233.951 448.444C233.951 443.293 221.077 372.469 223.652 359.592C223.652 359.592 112.293 345.427 109.718 329.331C107.144 313.234 112.293 306.152 112.293 306.152L154.133 301.001Z" fill="#2F2E41"/>
<path opacity="0.1" d="M154.133 301.001L158.639 306.152C158.639 306.152 251.974 317.741 253.905 335.769C255.836 353.797 269.354 438.786 261.629 441.361C253.905 443.937 233.951 453.594 233.951 448.444C233.951 443.293 221.077 372.469 223.652 359.592C223.652 359.592 112.293 345.427 109.718 329.331C107.144 313.234 112.293 306.152 112.293 306.152L154.133 301.001Z" fill="#202031"/>
<path d="M237.169 460.033C237.169 460.033 234.594 454.238 233.307 456.17C232.02 458.101 227.514 480.636 232.02 480.636C236.525 480.636 277.722 490.938 283.515 489.65C289.308 488.363 300.251 490.294 298.963 483.856C297.676 477.417 291.239 476.773 291.239 476.773C291.239 476.773 267.422 462.608 266.135 455.526C264.848 448.444 257.767 452.307 257.767 452.307V456.814C257.767 456.814 244.25 467.115 237.169 460.033Z" fill="#2F2E41"/>
<path d="M114.868 164.504C114.868 164.504 119.374 186.395 109.718 188.327C100.063 190.258 121.948 203.136 121.948 203.136L136.11 210.862L146.409 200.56C146.409 200.56 137.075 181.566 144.156 167.402C151.236 153.237 114.868 164.504 114.868 164.504Z" fill="#9F616A"/>
<path d="M146.409 200.56L136.11 210.862L121.948 203.136C121.948 203.136 100.063 190.258 109.718 188.327C115.93 187.084 116.277 177.581 115.743 170.962C115.569 168.795 115.277 166.639 114.868 164.504C114.868 164.504 151.236 153.237 144.156 167.402C143.08 169.589 142.334 171.924 141.941 174.33C139.772 187.059 146.409 200.56 146.409 200.56Z" fill="#FFCCCC"/>
<path d="M182.455 463.896V478.705H206.916L208.847 472.91L206.272 457.458L182.455 463.896Z" fill="#FFCCCC"/>
<path d="M81.396 313.878C81.396 313.878 81.396 351.866 96.8446 353.153C112.293 354.441 167.651 361.523 167.651 361.523C167.651 361.523 170.869 424.621 176.662 445.224C182.455 465.828 177.306 467.115 182.455 468.403C187.605 469.691 209.49 465.184 208.847 460.677C208.203 456.17 205.628 342.208 205.628 342.208C205.628 342.208 211.421 317.741 134.179 306.152L81.396 313.878Z" fill="#2F2E41"/>
<path d="M184.387 474.198C184.387 474.198 180.524 465.828 179.881 468.403C179.237 470.978 171.513 493.513 179.237 495.445C186.961 497.376 211.422 507.678 227.514 507.034C243.606 506.39 245.537 505.746 245.537 505.746C245.537 505.746 250.043 499.308 244.25 495.445C238.457 491.582 214.64 469.047 213.353 466.471C212.065 463.896 202.41 461.964 202.41 466.471C202.41 470.978 188.892 479.992 184.387 474.198Z" fill="#2F2E41"/>
<path opacity="0.1" d="M144.156 167.402C143.08 169.589 142.334 171.924 141.942 174.33C138.736 176.268 136.592 175.772 132.569 175.772C126.602 175.772 124.195 168.142 120.339 164.182C120.037 160.506 114.868 164.504 114.868 164.504C114.868 164.504 151.236 153.237 144.156 167.402Z" fill="black"/>
<path d="M130.96 175.45C142.692 175.45 152.202 165.937 152.202 154.203C152.202 142.468 142.692 132.956 130.96 132.956C119.229 132.956 109.719 142.468 109.719 154.203C109.719 165.937 119.229 175.45 130.96 175.45Z" fill="#FFCCCC"/>
<path d="M167.651 221.163C167.651 221.163 164.432 244.342 162.501 252.712C160.57 261.082 157.995 299.714 156.708 304.864C155.42 310.015 147.696 311.303 132.248 309.371C131.278 309.249 130.302 309.176 129.325 309.152C119.812 308.85 108.927 312.41 98.853 315.205C93.0598 316.814 87.5305 318.166 82.6835 318.385C75.3454 318.72 73.1955 310.582 73.4466 301.774C73.6847 293.578 76.0084 284.789 78.1777 281.686C82.0849 276.097 78.242 225.922 79.684 209.375V209.368C79.9027 206.844 80.2439 205.106 80.7524 204.423C84.6146 199.272 109.718 186.395 112.531 186.917C115.338 187.438 139.328 202.492 139.328 202.492C145.121 202.492 144.935 196.208 144.935 196.208C144.935 196.208 148.984 203.779 156.708 205.711C164.432 207.643 167.651 221.163 167.651 221.163Z" fill="#F01722"/>
<path d="M124.622 304.634C124.622 304.634 166.086 305.955 158.822 310.882C151.558 315.81 119.374 320.317 118.73 313.878C118.086 307.44 124.622 304.634 124.622 304.634Z" fill="#FFCCCC"/>
<path opacity="0.1" d="M129.325 309.152C129.46 311.625 122.811 317.194 120.661 320.961C119.47 323.047 110.253 320.298 98.853 315.205C90.105 311.277 81.6187 306.791 73.4465 301.774C73.6847 293.578 76.0084 284.789 78.1777 281.686C82.0849 276.097 78.242 225.922 79.684 209.375V209.368C80.0277 209.194 80.385 209.047 80.7524 208.93H88.4767C114.868 221.164 84.6146 273.959 84.6146 273.959C84.6146 273.959 124.523 306.796 128.386 308.084C128.639 308.132 128.869 308.263 129.039 308.457C129.209 308.65 129.31 308.895 129.325 309.152Z" fill="black"/>
<path d="M88.4767 205.067H80.7525C80.7525 205.067 73.6719 206.999 67.8787 219.876C62.0854 232.753 40.8437 272.672 59.5107 288.124C78.1777 303.577 118.086 321.605 120.661 317.098C123.236 312.591 132.248 305.508 128.386 304.221C124.523 302.933 84.6146 270.096 84.6146 270.096C84.6146 270.096 114.868 217.3 88.4767 205.067Z" fill="#FF1F2A"/>
<path d="M127.692 144.316C127.692 144.316 128.625 131.408 140.125 136.671C151.624 141.934 150.874 127.428 147.399 124.864C143.924 122.301 144.034 121.666 131.323 123.382C118.613 125.097 93.9368 128.003 101.916 153.566C109.895 179.129 117.121 172.553 117.121 172.553C117.121 172.553 110.779 149.549 117.205 153.932L123.631 158.314L127.022 157.596L127.692 144.316Z" fill="#2F2E41"/>
<path d="M223.37 470.879L182.317 359.239L73.85 351.581L45.6537 470.805L44.4011 470.509L72.8497 350.219L73.3949 350.258L183.237 358.013L183.382 358.404L224.578 470.434L223.37 470.879Z" fill="#2F2E41"/>
<path d="M384.093 377.972C395.201 377.972 404.207 368.965 404.207 357.853C404.207 346.742 395.201 337.734 384.093 337.734C372.984 337.734 363.979 346.742 363.979 357.853C363.979 368.965 372.984 377.972 384.093 377.972Z" fill="#4731BE"/>
<path d="M346.867 381.576C354.659 381.576 360.977 375.257 360.977 367.462C360.977 359.668 354.659 353.349 346.867 353.349C339.074 353.349 332.757 359.668 332.757 367.462C332.757 375.257 339.074 381.576 346.867 381.576Z" fill="#4731BE"/>
<path opacity="0.4" d="M35.9645 182.625C43.7572 182.625 50.0743 176.306 50.0743 168.512C50.0743 160.717 43.7572 154.398 35.9645 154.398C28.1719 154.398 21.8547 160.717 21.8547 168.512C21.8547 176.306 28.1719 182.625 35.9645 182.625Z" fill="#6C63FF"/>
<path d="M305.484 475.883L304.197 475.858C304.695 461.54 306.222 447.277 308.767 433.179C314.334 402.994 323.591 383.171 336.28 374.259L337.02 375.312C307.377 396.131 305.499 475.088 305.484 475.883Z" fill="#2F2E41"/>
<path d="M321.577 475.575L320.289 475.55C320.317 474.124 321.122 440.515 334.349 431.226L335.089 432.28C322.395 441.194 321.583 475.232 321.577 475.575Z" fill="#2F2E41"/>
<path d="M344.344 375.429C347.899 375.429 350.78 372.547 350.78 368.991C350.78 365.435 347.899 362.552 344.344 362.552C340.789 362.552 337.907 365.435 337.907 368.991C337.907 372.547 340.789 375.429 344.344 375.429Z" fill="#6C63FF"/>
<path d="M341.156 430.801C344.711 430.801 347.593 427.918 347.593 424.362C347.593 420.806 344.711 417.924 341.156 417.924C337.601 417.924 334.719 420.806 334.719 424.362C334.719 427.918 337.601 430.801 341.156 430.801Z" fill="#6C63FF"/>
<path d="M318.576 379.289C319.786 387.018 316.633 393.931 316.633 393.931C316.633 393.931 311.519 388.313 310.309 380.584C309.099 372.855 312.252 365.942 312.252 365.942C312.252 365.942 317.367 371.56 318.576 379.289Z" fill="#2F2E41"/>
<path d="M339.617 398.06C332.219 400.598 324.864 398.697 324.864 398.697C324.864 398.697 329.504 392.681 336.902 390.143C344.3 387.604 351.654 389.505 351.654 389.505C351.654 389.505 347.015 395.522 339.617 398.06Z" fill="#2F2E41"/>
<path d="M339.855 447.096C336.506 448.148 332.941 448.302 329.514 447.543C331.69 444.772 334.62 442.69 337.952 441.547C341.283 440.404 344.874 440.249 348.292 441.1C346.053 443.803 343.143 445.871 339.855 447.096Z" fill="#2F2E41"/>
<path d="M110.543 125.949L115.303 125.069L120.097 151.028L112.501 152.432L108.231 129.309C108.092 128.557 108.258 127.78 108.691 127.15C109.125 126.52 109.791 126.088 110.543 125.949Z" fill="#F01722"/>
<path d="M117.121 166.114C122.453 166.114 126.776 161.79 126.776 156.456C126.776 151.122 122.453 146.799 117.121 146.799C111.788 146.799 107.466 151.122 107.466 156.456C107.466 161.79 111.788 166.114 117.121 166.114Z" fill="#F01722"/>
<path d="M117.121 162.251C120.32 162.251 122.914 159.657 122.914 156.456C122.914 153.256 120.32 150.662 117.121 150.662C113.921 150.662 111.328 153.256 111.328 156.456C111.328 159.657 113.921 162.251 117.121 162.251Z" fill="#F2F2F2"/>
<path d="M117.121 158.388C118.187 158.388 119.052 157.523 119.052 156.456C119.052 155.39 118.187 154.525 117.121 154.525C116.054 154.525 115.19 155.39 115.19 156.456C115.19 157.523 116.054 158.388 117.121 158.388Z" fill="#F01722"/>
<path d="M558.08 184.31V86.9202H373.984V184.31H411.219H558.08Z" fill="#4731BE"/>
<path opacity="0.1" d="M474.4 238.885C487.198 238.885 497.573 237.873 497.573 236.624C497.573 235.375 487.198 234.362 474.4 234.362C461.602 234.362 451.227 235.375 451.227 236.624C451.227 237.873 461.602 238.885 474.4 238.885Z" fill="black"/>
<ellipse cx="400.697" cy="109.133" rx="8.68982" ry="8.69201" fill="#3A26A4"/>
<ellipse cx="400.697" cy="135.531" rx="8.68982" ry="8.69201" fill="#3A26A4"/>
<ellipse cx="400.697" cy="161.929" rx="8.68982" ry="8.692" fill="#3A26A4"/>
<rect x="419.686" y="103.016" width="39.2651" height="4.50697" fill="#8E7CEC"/>
<rect x="419.686" y="129.414" width="39.2651" height="4.50697" fill="#8E7CEC"/>
<rect x="419.686" y="155.812" width="39.2651" height="4.50696" fill="#8E7CEC"/>
<rect x="419.686" y="111.387" width="93.9789" height="4.50697" fill="#8E7CEC"/>
<rect x="419.686" y="137.785" width="93.9789" height="4.50696" fill="#8E7CEC"/>
<rect x="419.686" y="164.182" width="93.9789" height="4.50697" fill="#8E7CEC"/>
</svg>
