<svg width="539" height="305" viewBox="0 0 539 305" fill="none" xmlns="http://www.w3.org/2000/svg">
<g clip-path="url(#clip0)">
<path d="M255.517 30.4231C256.984 30.4231 258.173 29.2601 258.173 27.8255C258.173 26.3909 256.984 25.228 255.517 25.228C254.05 25.228 252.86 26.3909 252.86 27.8255C252.86 29.2601 254.05 30.4231 255.517 30.4231Z" fill="#F2F2F2"/>
<path d="M172.1 114.584C172.687 114.584 173.163 114.118 173.163 113.545C173.163 112.971 172.687 112.506 172.1 112.506C171.513 112.506 171.038 112.971 171.038 113.545C171.038 114.118 171.513 114.584 172.1 114.584Z" fill="#F2F2F2"/>
<path d="M328.839 163.417C329.425 163.417 329.901 162.952 329.901 162.378C329.901 161.805 329.425 161.339 328.839 161.339C328.252 161.339 327.776 161.805 327.776 162.378C327.776 162.952 328.252 163.417 328.839 163.417Z" fill="#F2F2F2"/>
<path d="M52.0228 150.43C52.6097 150.43 53.0855 149.965 53.0855 149.391C53.0855 148.817 52.6097 148.352 52.0228 148.352C51.436 148.352 50.9602 148.817 50.9602 149.391C50.9602 149.965 51.436 150.43 52.0228 150.43Z" fill="#F2F2F2"/>
<path d="M466.45 113.545C467.036 113.545 467.512 113.079 467.512 112.506C467.512 111.932 467.036 111.467 466.45 111.467C465.863 111.467 465.387 111.932 465.387 112.506C465.387 113.079 465.863 113.545 466.45 113.545Z" fill="#F2F2F2"/>
<path d="M125.344 124.454C125.931 124.454 126.407 123.989 126.407 123.415C126.407 122.841 125.931 122.376 125.344 122.376C124.757 122.376 124.282 122.841 124.282 123.415C124.282 123.989 124.757 124.454 125.344 124.454Z" fill="#F2F2F2"/>
<path d="M299.616 103.674C300.203 103.674 300.679 103.209 300.679 102.635C300.679 102.061 300.203 101.596 299.616 101.596C299.029 101.596 298.554 102.061 298.554 102.635C298.554 103.209 299.029 103.674 299.616 103.674Z" fill="#F2F2F2"/>
<path d="M334.683 28.8645C335.27 28.8645 335.746 28.3993 335.746 27.8255C335.746 27.2517 335.27 26.7865 334.683 26.7865C334.096 26.7865 333.62 27.2517 333.62 27.8255C333.62 28.3993 334.096 28.8645 334.683 28.8645Z" fill="#F2F2F2"/>
<path d="M113.655 150.43H112.593V150.949H113.655V150.43Z" fill="#F2F2F2"/>
<path d="M145.003 70.9448H143.941V71.4643H145.003V70.9448Z" fill="#F2F2F2"/>
<path d="M221.513 130.169H220.45V130.688H221.513V130.169Z" fill="#F2F2F2"/>
<path d="M424.476 153.027H423.413V153.547H424.476V153.027Z" fill="#F2F2F2"/>
<path d="M361.249 73.5423H360.186V74.0618H361.249V73.5423Z" fill="#F2F2F2"/>
<path d="M121.53 189.464H119.66V261.677H121.53V189.464Z" fill="#3F3D56"/>
<path d="M138.786 176.847C138.905 202.098 120.735 222.651 120.735 222.651C120.735 222.651 102.373 202.263 102.254 177.012C102.135 151.76 120.304 131.208 120.304 131.208C120.304 131.208 138.667 151.596 138.786 176.847Z" fill="#3F3D56"/>
<path d="M98.4516 168.056H96.0276V261.677H98.4516V168.056Z" fill="#3F3D56"/>
<path d="M120.823 158.167C120.977 190.904 97.4212 217.55 97.4212 217.55C97.4212 217.55 73.6153 191.118 73.461 158.381C73.3066 125.644 96.8624 98.9983 96.8624 98.9983C96.8624 98.9983 120.668 125.43 120.823 158.167Z" fill="#3F3D56"/>
<path d="M380.281 189.464H378.411V261.677H380.281V189.464Z" fill="#6C63FF"/>
<path d="M397.537 198.666C397.656 223.918 379.486 244.47 379.486 244.47C379.486 244.47 361.124 224.082 361.005 198.831C360.886 173.58 379.055 153.027 379.055 153.027C379.055 153.027 397.418 173.415 397.537 198.666Z" fill="#3F3D56"/>
<path d="M76.8994 189.464H75.0297V261.677H76.8994V189.464Z" fill="#3F3D56"/>
<path d="M94.155 176.847C94.274 202.098 76.1046 222.651 76.1046 222.651C76.1046 222.651 57.7423 202.263 57.6233 177.012C57.5042 151.76 75.6736 131.208 75.6736 131.208C75.6736 131.208 94.0359 151.596 94.155 176.847Z" fill="#3F3D56"/>
<path d="M241.607 189.464H239.738V261.677H241.607V189.464Z" fill="#3F3D56"/>
<path d="M258.863 176.847C258.982 202.098 240.813 222.651 240.813 222.651C240.813 222.651 222.45 202.263 222.331 177.012C222.212 151.76 240.382 131.208 240.382 131.208C240.382 131.208 258.744 151.596 258.863 176.847Z" fill="#3F3D56"/>
<path d="M218.529 168.056H216.105V261.677H218.529V168.056Z" fill="#3F3D56"/>
<path d="M240.9 158.167C241.054 190.904 217.499 217.55 217.499 217.55C217.499 217.55 193.693 191.118 193.538 158.381C193.384 125.644 216.94 98.9983 216.94 98.9983C216.94 98.9983 240.746 125.43 240.9 158.167Z" fill="#3F3D56"/>
<path d="M196.977 189.464H195.107V261.677H196.977V189.464Z" fill="#3F3D56"/>
<path d="M214.233 176.847C214.352 202.098 196.182 222.651 196.182 222.651C196.182 222.651 177.82 202.263 177.701 177.012C177.582 151.76 195.751 131.208 195.751 131.208C195.751 131.208 214.113 151.596 214.233 176.847Z" fill="#3F3D56"/>
<path d="M392.371 223.093L361.127 195.004C361.043 196.266 360.999 197.542 361.005 198.831C361.124 224.082 379.486 244.47 379.486 244.47C384.832 238.003 389.174 230.799 392.371 223.093Z" fill="#6C63FF"/>
<path d="M159.803 255.236C160.874 259.105 164.541 261.501 164.541 261.501C164.541 261.501 166.472 257.624 165.401 253.755C164.331 249.886 160.664 247.49 160.664 247.49C160.664 247.49 158.733 251.366 159.803 255.236Z" fill="#3F3D56"/>
<path d="M161.377 254.404C164.314 257.2 164.673 261.498 164.673 261.498C164.673 261.498 160.269 261.263 157.332 258.467C154.394 255.671 154.036 251.373 154.036 251.373C154.036 251.373 158.439 251.608 161.377 254.404Z" fill="#3F3D56"/>
<path d="M310.698 255.236C311.768 259.105 315.435 261.501 315.435 261.501C315.435 261.501 317.366 257.624 316.295 253.755C315.225 249.886 311.558 247.49 311.558 247.49C311.558 247.49 309.627 251.366 310.698 255.236Z" fill="#6C63FF"/>
<path d="M312.27 254.404C315.208 257.2 315.567 261.498 315.567 261.498C315.567 261.498 311.163 261.263 308.226 258.467C305.288 255.671 304.929 251.373 304.929 251.373C304.929 251.373 309.333 251.608 312.27 254.404Z" fill="#6C63FF"/>
<path d="M40.7887 255.236C41.8592 259.105 45.5258 261.501 45.5258 261.501C45.5258 261.501 47.4568 257.624 46.3863 253.755C45.3159 249.886 41.6493 247.49 41.6493 247.49C41.6493 247.49 39.7183 251.366 40.7887 255.236Z" fill="#3F3D56"/>
<path d="M42.3617 254.404C45.2991 257.2 45.6578 261.498 45.6578 261.498C45.6578 261.498 41.2542 261.263 38.3168 258.467C35.3794 255.671 35.0206 251.373 35.0206 251.373C35.0206 251.373 39.4243 251.608 42.3617 254.404Z" fill="#3F3D56"/>
<path d="M205.863 115.188L257.14 190.861C258.286 186.274 258.864 181.569 258.863 176.847C258.805 164.534 254.409 153.378 249.919 145.178L247.547 145.754L249.778 144.922C247.135 140.048 243.986 135.453 240.382 131.208C240.382 131.208 239.073 132.689 237.162 135.34C230.425 113.974 216.94 98.9983 216.94 98.9983C212.731 104.039 209.022 109.46 205.863 115.188Z" fill="#6C63FF"/>
<path opacity="0.1" d="M500.895 258.615C501.3 258.615 501.689 258.457 501.976 258.177C502.263 257.897 502.424 257.517 502.424 257.12C502.424 256.724 502.263 256.343 501.976 256.063C501.689 255.783 501.3 255.625 500.895 255.625H488.324C488.73 256.418 488.796 257.336 488.51 258.177C488.223 259.018 487.606 259.713 486.795 260.11C486.795 260.506 486.956 260.887 487.243 261.167C487.53 261.447 487.919 261.605 488.324 261.605H500.895C501.3 261.605 501.689 261.447 501.976 261.167C502.263 260.887 502.424 260.506 502.424 260.11C502.424 259.713 502.263 259.333 501.976 259.053C501.689 258.772 501.3 258.615 500.895 258.615Z" fill="#F2F2F2"/>
<path d="M471.017 255.53C471.231 263.683 466.188 261.605 460.074 261.605C453.959 261.605 448.916 262.644 448.875 255.53C448.855 252.027 453.868 251.266 459.982 251.266C466.096 251.266 470.924 252.029 471.017 255.53Z" fill="#3F3D56"/>
<path d="M485.321 258.752C485.222 258.701 485.115 258.667 485.004 258.652C484.449 258.566 483.899 258.451 483.357 258.308C482.812 258.164 482.312 257.892 481.899 257.515C481.745 257.338 481.573 257.177 481.386 257.034C481.291 256.964 481.177 256.923 481.058 256.914C480.94 256.906 480.821 256.931 480.717 256.987C480.695 257.004 480.675 257.022 480.657 257.043C480.582 256.994 480.506 256.945 480.43 256.896C480.025 256.635 479.619 256.378 479.21 256.123L479.193 256.113C479.205 256.05 479.206 255.986 479.195 255.923C479.123 255.716 478.979 255.541 478.788 255.429C479.315 255.424 479.845 255.377 480.369 255.323C480.868 255.332 481.35 255.147 481.711 254.81C481.765 254.752 481.798 254.677 481.804 254.598C481.805 254.437 481.635 254.331 481.482 254.27C481.279 254.189 481.068 254.128 480.852 254.088C480.701 254.068 480.551 254.037 480.404 253.997C480.274 253.95 480.148 253.892 480.028 253.823C479.768 253.683 479.509 253.544 479.249 253.404C479.138 253.351 479.037 253.282 478.948 253.199C478.815 253.062 478.757 252.869 478.622 252.734C478.498 252.611 477.995 252.447 477.924 252.701C477.895 252.802 478.004 252.913 478.017 253.025C477.843 252.918 477.663 252.821 477.477 252.735C477.488 252.713 477.501 252.692 477.51 252.669C476.648 251.994 475.963 251.127 475.512 250.14C475.589 250.142 475.667 250.147 475.744 250.146C475.875 250.158 476.007 250.127 476.118 250.057C476.164 250.016 476.2 249.966 476.223 249.91C476.245 249.853 476.255 249.793 476.251 249.733C476.241 249.612 476.21 249.494 476.161 249.383C476.051 249.05 475.875 248.742 475.644 248.476C475.42 248.264 475.164 248.087 474.886 247.949L474.841 247.925C474.822 247.869 474.805 247.812 474.782 247.757C474.614 247.416 474.425 247.086 474.214 246.769C473.918 246.237 473.699 245.668 473.564 245.077C473.515 244.717 473.374 244.375 473.154 244.082C472.749 243.645 472.053 243.656 471.454 243.722C471.112 243.759 470.771 243.81 470.431 243.861C470.428 243.853 470.428 243.844 470.424 243.836C470.382 243.757 470.355 243.672 470.346 243.583C470.354 243.511 470.371 243.44 470.394 243.371C470.412 243.286 470.408 243.197 470.382 243.113C470.356 243.03 470.309 242.954 470.245 242.893C470.231 242.879 470.217 242.864 470.203 242.85C470.241 242.763 470.275 242.676 470.306 242.588C470.334 242.556 470.356 242.518 470.369 242.478C470.381 242.437 470.386 242.394 470.381 242.352C470.443 242.139 470.475 241.919 470.478 241.698C470.408 241.209 470.39 240.714 470.424 240.222C470.407 240.1 470.361 239.983 470.292 239.88C470.279 239.864 470.258 239.857 470.244 239.842C470.348 239.708 470.467 239.586 470.601 239.48C470.863 239.282 471.143 239.109 471.437 238.962C471.508 238.924 471.606 238.897 471.674 238.853C471.777 238.87 471.882 238.881 471.986 238.884C472.376 238.886 472.76 238.795 473.105 238.619C473.45 238.443 473.746 238.187 473.967 237.873C474.187 237.559 474.326 237.197 474.37 236.819C474.415 236.441 474.364 236.058 474.222 235.703C474.33 235.677 474.432 235.631 474.521 235.566C474.611 235.502 474.686 235.421 474.743 235.327C474.859 235.129 474.929 234.908 474.947 234.68C474.966 234.593 474.967 234.502 474.949 234.415C474.932 234.327 474.897 234.243 474.847 234.169C474.758 234.084 474.655 234.014 474.543 233.961C474.388 233.866 474.258 233.738 474.164 233.585C474.097 233.477 474.049 233.358 473.988 233.246C473.888 233.038 473.731 232.861 473.535 232.734C473.34 232.607 473.112 232.535 472.877 232.526C472.654 232.554 472.433 232.597 472.216 232.655C471.472 232.783 470.664 232.398 469.974 232.698C469.804 232.779 469.646 232.881 469.505 233.004C469.31 233.16 469.123 233.325 468.944 233.499C468.789 233.629 468.671 233.796 468.603 233.985C468.509 234.329 468.732 234.714 468.59 235.042C468.542 235.136 468.484 235.225 468.417 235.307C468.261 235.532 468.431 236.408 468.413 236.679C468.393 236.812 468.428 236.947 468.509 237.055C468.53 237.076 468.554 237.093 468.579 237.107C467.422 237.511 466.29 237.981 465.19 238.516C463.869 239.141 462.772 240.142 462.045 241.388C461.858 241.745 461.716 242.121 461.547 242.486C461.322 242.972 461.049 243.436 460.777 243.898C460.445 244.463 460.112 245.028 459.728 245.56C459.509 245.842 459.307 246.136 459.121 246.44C459.116 246.484 459.115 246.529 459.117 246.573C459.125 246.615 459.12 246.658 459.105 246.698C459.088 246.721 459.067 246.741 459.041 246.755C459.016 246.769 458.988 246.777 458.96 246.78L458.951 246.802C458.864 247.076 458.792 247.354 458.735 247.634C458.622 248.081 458.441 248.511 458.372 248.966C458.331 249.023 458.309 249.09 458.307 249.16C458.305 249.229 458.325 249.297 458.362 249.356C458.4 249.415 458.454 249.462 458.519 249.49C458.583 249.519 458.655 249.529 458.725 249.518C459.123 249.691 459.507 249.894 459.889 250.098C459.883 250.126 459.874 250.152 459.871 250.18C459.858 250.469 459.929 250.756 460.077 251.008C460.224 251.259 460.441 251.464 460.702 251.6C461.229 251.864 461.807 252.017 462.398 252.051C462.628 252.078 462.858 252.09 463.088 252.113C463.423 252.295 463.779 252.437 464.15 252.534C464.231 252.557 464.314 252.57 464.398 252.572C464.511 252.565 464.62 252.533 464.719 252.479C464.817 252.424 464.902 252.349 464.966 252.259C466.942 252.366 468.923 252.326 470.893 252.141C471.438 252.017 472.011 252.104 472.492 252.383C472.919 252.723 473.005 253.325 473.323 253.764C473.553 254.036 473.812 254.283 474.095 254.501C474.658 255.084 475.155 255.723 475.579 256.408C476.007 257.101 476.627 257.66 477.367 258.022C477.5 257.814 477.693 257.65 477.922 257.55C477.981 257.516 478.037 257.475 478.096 257.438C478.174 257.562 478.265 257.678 478.367 257.784C478.443 257.865 478.519 257.95 478.59 258.037C478.588 258.038 478.586 258.036 478.583 258.037C478.48 258.053 478.445 258.179 478.433 258.281C478.388 258.67 478.342 259.06 478.297 259.449C478.281 259.526 478.286 259.606 478.313 259.68C478.362 259.761 478.438 259.822 478.528 259.855C478.897 260.028 479.297 260.131 479.707 260.159C479.912 260.172 480.119 260.167 480.325 260.184C480.662 260.227 480.996 260.292 481.323 260.379C482.216 260.578 483.134 260.649 484.048 260.588C484.236 260.583 484.423 260.549 484.6 260.486C484.81 260.387 484.996 260.247 485.146 260.073C485.336 259.896 485.477 259.675 485.556 259.43C485.593 259.307 485.59 259.176 485.548 259.055C485.505 258.934 485.426 258.828 485.321 258.752Z" fill="#3F3D56"/>
<path d="M470.622 232.655C470.71 232.64 470.797 232.616 470.884 232.594C470.605 232.561 470.321 232.587 470.053 232.673C470.243 232.69 470.434 232.684 470.622 232.655Z" fill="#FF6584"/>
<path d="M472.394 233.246C472.455 233.358 472.503 233.477 472.57 233.585C472.665 233.738 472.794 233.866 472.949 233.961C473.061 234.014 473.164 234.084 473.253 234.169C473.304 234.243 473.338 234.327 473.355 234.415C473.373 234.502 473.372 234.593 473.353 234.68C473.335 234.908 473.266 235.129 473.149 235.327C473.092 235.421 473.017 235.502 472.927 235.566C472.838 235.631 472.736 235.677 472.628 235.703C472.792 236.081 472.848 236.495 472.792 236.902C472.736 237.309 472.568 237.694 472.308 238.016C472.047 238.338 471.703 238.585 471.311 238.733C470.919 238.88 470.494 238.922 470.08 238.853C470.012 238.897 469.914 238.924 469.843 238.962C469.549 239.109 469.269 239.282 469.007 239.48C468.874 239.586 468.754 239.708 468.65 239.842C468.665 239.857 468.685 239.864 468.698 239.88C468.768 239.983 468.813 240.1 468.831 240.222C468.796 240.714 468.814 241.209 468.884 241.698C468.882 241.919 468.849 242.139 468.787 242.352C468.792 242.394 468.788 242.437 468.775 242.478C468.762 242.518 468.741 242.556 468.712 242.588C468.681 242.676 468.647 242.763 468.609 242.85C468.623 242.864 468.637 242.879 468.652 242.893C468.715 242.954 468.763 243.03 468.789 243.113C468.815 243.197 468.819 243.286 468.8 243.371C468.777 243.44 468.761 243.511 468.752 243.583C468.761 243.672 468.788 243.757 468.83 243.836C468.834 243.844 468.834 243.853 468.837 243.861C469.177 243.81 469.518 243.759 469.86 243.722C470.029 243.702 470.198 243.692 470.368 243.689C470.355 243.655 470.347 243.62 470.346 243.583C470.355 243.511 470.371 243.44 470.394 243.371C470.413 243.286 470.408 243.197 470.382 243.113C470.356 243.03 470.309 242.954 470.246 242.893C470.231 242.879 470.217 242.864 470.203 242.85C470.241 242.763 470.275 242.676 470.306 242.588C470.335 242.556 470.356 242.518 470.369 242.478C470.382 242.437 470.386 242.394 470.381 242.352C470.443 242.139 470.476 241.919 470.478 241.698C470.408 241.209 470.39 240.714 470.425 240.222C470.407 240.1 470.361 239.983 470.292 239.88C470.279 239.864 470.259 239.857 470.244 239.842C470.348 239.708 470.468 239.586 470.601 239.48C470.863 239.282 471.143 239.109 471.437 238.962C471.508 238.924 471.606 238.897 471.674 238.853C471.777 238.87 471.882 238.881 471.987 238.884C472.376 238.886 472.76 238.795 473.105 238.619C473.45 238.443 473.746 238.187 473.967 237.873C474.187 237.559 474.326 237.197 474.37 236.819C474.415 236.441 474.364 236.058 474.222 235.703C474.33 235.677 474.432 235.631 474.521 235.566C474.611 235.502 474.686 235.421 474.743 235.327C474.86 235.129 474.929 234.908 474.947 234.68C474.966 234.593 474.967 234.502 474.949 234.415C474.932 234.327 474.897 234.243 474.847 234.169C474.758 234.084 474.655 234.014 474.543 233.961C474.388 233.866 474.258 233.738 474.164 233.585C474.097 233.477 474.049 233.358 473.988 233.246C473.888 233.038 473.731 232.861 473.535 232.734C473.34 232.607 473.112 232.535 472.877 232.526C472.654 232.554 472.433 232.597 472.216 232.655C472.094 232.674 471.971 232.682 471.848 232.679C472.08 232.816 472.268 233.012 472.394 233.246Z" fill="#FF6584"/>
<path d="M485.321 258.752C485.222 258.701 485.115 258.667 485.004 258.652C484.449 258.566 483.9 258.451 483.357 258.308C482.813 258.164 482.312 257.892 481.9 257.515C481.746 257.338 481.574 257.177 481.386 257.034C481.291 256.964 481.178 256.923 481.059 256.914C480.94 256.906 480.821 256.931 480.717 256.987C480.696 257.004 480.676 257.022 480.658 257.043C480.582 256.994 480.506 256.945 480.43 256.896C480.025 256.635 479.619 256.378 479.21 256.123L479.194 256.113C479.205 256.05 479.206 255.986 479.195 255.923C479.124 255.716 478.979 255.541 478.788 255.429C479.315 255.424 479.845 255.377 480.369 255.323C480.868 255.332 481.35 255.147 481.711 254.81C481.766 254.752 481.799 254.677 481.805 254.598C481.805 254.437 481.635 254.331 481.482 254.27C481.279 254.189 481.068 254.128 480.852 254.088C480.701 254.068 480.552 254.037 480.405 253.997C480.274 253.95 480.148 253.892 480.028 253.823C479.769 253.683 479.509 253.544 479.249 253.404C479.139 253.351 479.037 253.282 478.948 253.199C478.816 253.062 478.757 252.869 478.622 252.734C478.498 252.611 477.996 252.447 477.924 252.701C477.895 252.802 478.004 252.913 478.017 253.025C477.843 252.918 477.663 252.821 477.478 252.735C477.488 252.713 477.501 252.692 477.51 252.669C476.648 251.994 475.963 251.127 475.512 250.14C475.59 250.142 475.667 250.147 475.744 250.146C475.875 250.158 476.007 250.127 476.118 250.057C476.164 250.016 476.2 249.966 476.223 249.91C476.246 249.853 476.255 249.793 476.251 249.733C476.241 249.612 476.211 249.494 476.161 249.383C476.051 249.05 475.875 248.742 475.644 248.476C475.42 248.264 475.165 248.087 474.886 247.949L474.842 247.925C474.823 247.869 474.805 247.812 474.783 247.757C474.615 247.416 474.425 247.086 474.214 246.769C473.918 246.237 473.699 245.668 473.565 245.077C473.515 244.717 473.374 244.375 473.155 244.082C472.749 243.645 472.054 243.656 471.454 243.722C471.32 243.736 471.187 243.758 471.053 243.776C471.247 243.832 471.422 243.937 471.561 244.082C471.78 244.375 471.921 244.717 471.971 245.077C472.105 245.668 472.324 246.237 472.62 246.769C472.831 247.086 473.021 247.416 473.189 247.757C473.211 247.812 473.229 247.869 473.248 247.925L473.293 247.949C473.571 248.087 473.826 248.264 474.05 248.476C474.282 248.742 474.457 249.05 474.567 249.383C474.617 249.494 474.647 249.612 474.657 249.733C474.661 249.793 474.652 249.853 474.629 249.91C474.606 249.966 474.57 250.016 474.524 250.057C474.413 250.127 474.282 250.158 474.15 250.146C474.073 250.147 473.996 250.142 473.918 250.14C474.369 251.127 475.054 251.994 475.916 252.669C475.907 252.692 475.894 252.713 475.884 252.735C476.069 252.821 476.249 252.918 476.423 253.025C476.41 252.913 476.302 252.802 476.33 252.701C476.402 252.447 476.904 252.611 477.028 252.734C477.163 252.869 477.222 253.062 477.354 253.199C477.443 253.282 477.545 253.351 477.655 253.404C477.915 253.544 478.175 253.683 478.434 253.823C478.554 253.892 478.68 253.95 478.811 253.997C478.958 254.037 479.107 254.068 479.258 254.088C479.474 254.128 479.685 254.189 479.888 254.27C480.041 254.331 480.211 254.437 480.211 254.598C480.205 254.677 480.172 254.752 480.117 254.81C479.756 255.147 479.274 255.332 478.775 255.323C478.251 255.377 477.721 255.424 477.194 255.429C477.385 255.541 477.53 255.716 477.601 255.923C477.612 255.986 477.611 256.05 477.6 256.113L477.616 256.123C478.025 256.378 478.431 256.635 478.836 256.896C478.912 256.944 478.988 256.993 479.064 257.043C479.082 257.022 479.102 257.004 479.123 256.987C479.227 256.931 479.346 256.906 479.465 256.914C479.584 256.923 479.697 256.964 479.792 257.034C479.98 257.177 480.152 257.338 480.306 257.515C480.718 257.892 481.219 258.164 481.763 258.308C482.306 258.451 482.855 258.566 483.41 258.652C483.521 258.667 483.628 258.701 483.727 258.752C483.833 258.828 483.912 258.934 483.954 259.055C483.996 259.176 483.999 259.307 483.962 259.43C483.884 259.675 483.742 259.896 483.552 260.073C483.402 260.247 483.216 260.387 483.007 260.486C482.877 260.534 482.741 260.563 482.602 260.573C483.083 260.614 483.566 260.619 484.048 260.588C484.237 260.583 484.423 260.549 484.601 260.486C484.81 260.387 484.996 260.247 485.146 260.073C485.336 259.896 485.477 259.675 485.556 259.43C485.593 259.307 485.59 259.176 485.548 259.055C485.506 258.934 485.427 258.828 485.321 258.752Z" fill="#FF6584"/>
<path d="M476.482 257.452C476.508 257.475 476.534 257.5 476.562 257.523C476.542 257.495 476.52 257.468 476.502 257.438L476.482 257.452Z" fill="#FF6584"/>
<path d="M500.215 253.134C500.215 258.638 497.705 257.12 494.609 257.12C491.513 257.12 489.004 258.638 489.004 253.134C489.004 247.629 494.609 237.188 494.609 237.188C494.609 237.188 500.215 247.629 500.215 253.134Z" fill="#FF6584"/>
<path opacity="0.1" d="M497.158 255.239C497.158 257.741 496.017 257.051 494.609 257.051C493.202 257.051 492.061 257.741 492.061 255.239C492.061 252.738 494.609 247.991 494.609 247.991C494.609 247.991 497.158 252.738 497.158 255.239Z" fill="black"/>
<path d="M501.636 238.426C501.636 238.426 502.801 237.242 502.778 236.081L501.636 238.426Z" fill="#FF6584"/>
<path d="M489.701 228.56C489.701 228.56 489.215 226.987 488.167 226.439L489.701 228.56Z" fill="#FF6584"/>
<path d="M478.012 207.26C478.012 207.26 477.526 205.687 476.478 205.139L478.012 207.26Z" fill="#FF6584"/>
<path d="M491.826 235.833C491.826 235.833 491.34 234.26 490.292 233.712L491.826 235.833Z" fill="#FF6584"/>
<path d="M490.232 210.377C490.232 210.377 489.746 208.804 488.699 208.256L490.232 210.377Z" fill="#FF6584"/>
<path d="M487.044 219.728C487.044 219.728 486.558 218.156 485.511 217.607L487.044 219.728Z" fill="#FF6584"/>
<path d="M500.574 254.531C500.574 254.531 501.738 253.347 501.715 252.186L500.574 254.531Z" fill="#FF6584"/>
<path d="M502.699 245.7C502.699 245.7 503.864 244.515 503.84 243.354L502.699 245.7Z" fill="#FF6584"/>
<path d="M488.149 244.214L475.398 248.37L475.566 248.864L488.318 244.708L488.149 244.214Z" fill="#FF6584"/>
<path d="M487.224 244.71C487.702 246.539 486.899 246.102 486.166 246.25C485.433 246.399 485.577 247.059 484.569 245.247C483.873 243.994 484.894 243.855 485.627 243.707C486.36 243.558 486.897 243.461 487.224 244.71Z" fill="#FF6584"/>
<path opacity="0.1" d="M305.429 144.93L305.428 144.929L293.836 134.507L293.732 134.532L289.089 130.406L288.865 130.342L289.107 130.252L239.738 85.8688L192.059 43.0046L167.765 55.6047L165.778 56.0349L194.892 98.9983L305.078 261.605H435.208L305.429 144.93Z" fill="#F2F2F2"/>
<path d="M177.945 62.6326C185.868 62.6326 192.29 56.3526 192.29 48.6059C192.29 40.8591 185.868 34.5791 177.945 34.5791C170.022 34.5791 163.599 40.8591 163.599 48.6059C163.599 56.3526 170.022 62.6326 177.945 62.6326Z" fill="#FFC9FA"/>
</g>
<path d="M343.444 69.3696C353.329 69.3696 361.343 61.5329 361.343 51.8658C361.343 42.1987 353.329 34.362 343.444 34.362C333.559 34.362 325.546 42.1987 325.546 51.8658C325.546 61.5329 333.559 69.3696 343.444 69.3696Z" fill="#FFCCCC"/>
<path d="M342.287 149.995C341.941 148.943 341.827 147.831 341.951 146.733C342.076 145.635 342.436 144.575 343.009 143.622C343.581 142.67 344.353 141.846 345.274 141.206C346.195 140.566 347.244 140.123 348.352 139.907C348.703 139.841 349.058 139.799 349.415 139.782L368.269 110.189L351.05 94.1768C350.384 93.5672 349.848 92.8339 349.475 92.0198C349.101 91.2057 348.897 90.327 348.875 89.435C348.852 88.543 349.011 87.6555 349.343 86.8243C349.675 85.9931 350.173 85.2349 350.807 84.5937C351.442 83.9526 352.2 83.4414 353.039 83.09C353.878 82.7386 354.779 82.554 355.692 82.547C356.604 82.5399 357.509 82.7106 358.353 83.0491C359.197 83.3875 359.964 83.887 360.609 84.5183L384.387 107.451L384.435 107.508C385.171 108.602 385.526 109.899 385.448 111.207C385.37 112.514 384.863 113.763 384.002 114.766L357.585 145.317C357.664 145.562 357.729 145.811 357.782 146.062C358.002 147.146 357.987 148.263 357.736 149.34C357.484 150.417 357.003 151.43 356.324 152.312C355.644 153.195 354.782 153.927 353.793 154.461C352.804 154.994 351.711 155.318 350.585 155.41C350.358 155.429 350.131 155.439 349.906 155.439C348.212 155.432 346.563 154.902 345.194 153.924C343.826 152.947 342.809 151.572 342.287 149.995Z" fill="#FFCCCC"/>
<path d="M313.966 295.475H305.031L300.781 261.774H313.967L313.966 295.475Z" fill="#FFCCCC"/>
<path d="M316.608 304.301H287.072V303.585C287.072 302.098 287.372 300.626 287.953 299.253C288.535 297.879 289.388 296.631 290.463 295.58C291.538 294.528 292.814 293.694 294.219 293.125C295.624 292.556 297.129 292.264 298.649 292.264H316.609L316.608 304.301Z" fill="#33334B"/>
<path d="M402.765 283.395L395.089 287.866L373.807 261.036L385.137 254.439L402.765 283.395Z" fill="#FFCCCC"/>
<path d="M384.275 304.434L383.902 303.821C382.331 301.241 381.873 298.157 382.627 295.246C383.382 292.336 385.288 289.838 387.926 288.301L403.357 279.316L409.653 289.654L384.275 304.434Z" fill="#33334B"/>
<path d="M299.654 280.634C293.669 211.715 290.108 147.69 311.987 121.572L312.156 121.369L348.976 135.773L349.037 135.901C349.161 136.166 361.406 162.507 358.55 180.225L367.632 221.082L397.244 269.572C397.482 269.963 397.633 270.398 397.686 270.85C397.739 271.302 397.694 271.759 397.553 272.192C397.411 272.626 397.177 273.024 396.866 273.362C396.555 273.701 396.175 273.97 395.749 274.153L382.88 279.69C382.154 279.999 381.338 280.042 380.582 279.811C379.827 279.58 379.181 279.091 378.764 278.432L346.552 227.062L328.356 187.662C328.258 187.447 328.09 187.271 327.878 187.16C327.667 187.048 327.424 187.008 327.187 187.045C326.949 187.083 326.732 187.195 326.566 187.366C326.401 187.536 326.298 187.755 326.273 187.989L316.188 280.704C316.104 281.492 315.724 282.221 315.122 282.751C314.519 283.281 313.738 283.573 312.928 283.572H302.923C302.102 283.567 301.312 283.264 300.708 282.72C300.104 282.177 299.728 281.433 299.654 280.634Z" fill="#33334B"/>
<path d="M312.112 122.118L311.936 122.036L311.908 121.848C310.533 112.434 312.161 101.973 316.747 90.7576C319.008 85.2688 323.21 80.7567 328.587 78.0433C333.964 75.3299 340.159 74.5956 346.043 75.9743C349.433 76.7911 352.612 78.2875 355.379 80.3686C358.147 82.4497 360.442 85.0702 362.12 88.064C363.776 91.0271 364.785 94.2944 365.083 97.6587C365.38 101.023 364.961 104.411 363.85 107.609C358.068 124.143 350.568 139.613 350.492 139.767L350.335 140.089L312.112 122.118Z" fill="#F01722"/>
<path d="M285.618 161.162C285.365 159.26 285.818 157.333 286.895 155.73C287.972 154.128 289.602 152.957 291.487 152.43L325.917 87.7865C326.359 87.04 326.95 86.3878 327.655 85.8684C328.359 85.3491 329.163 84.9731 330.018 84.7628C330.874 84.5524 331.764 84.512 332.636 84.6438C333.507 84.7756 334.343 85.0769 335.094 85.5301C335.845 85.9833 336.495 86.579 337.006 87.2822C337.517 87.9853 337.879 88.7815 338.07 89.6237C338.261 90.466 338.277 91.3371 338.118 92.1857C337.959 93.0342 337.628 93.8429 337.143 94.564L301.9 158.757C301.973 159.148 302.016 159.543 302.028 159.94C302.058 161.026 301.863 162.106 301.456 163.116C301.048 164.126 300.436 165.046 299.656 165.818C298.876 166.591 297.944 167.202 296.917 167.614C295.89 168.026 294.788 168.231 293.677 168.216C292.46 168.199 291.262 167.918 290.169 167.395C289.075 166.871 288.114 166.117 287.354 165.187C286.402 164.03 285.8 162.636 285.615 161.162H285.618Z" fill="#FFCCCC"/>
<path d="M321.742 41.9779H350.163V29.8626C343.925 27.439 337.821 25.3776 334.131 29.8626C330.845 29.8626 327.694 31.139 325.371 33.4111C323.048 35.6832 321.742 38.7647 321.742 41.9779Z" fill="#2F2E41"/>
<path d="M351.737 27.7247C368.727 27.7247 373.482 48.5519 373.482 60.3019C373.482 66.8546 370.453 69.1992 365.69 69.9912L364.008 61.2192L360.07 70.3672C358.732 70.3734 357.327 70.3484 355.87 70.3221L354.535 67.6328L351.557 70.2738C339.63 70.2913 329.991 71.9912 329.991 60.3007C329.991 48.5525 334.162 27.7247 351.737 27.7247Z" fill="#33334B"/>
<path d="M346.674 44.8858V28.6783C346.674 28.4864 346.635 28.2963 346.56 28.1189C346.485 27.9416 346.375 27.7804 346.236 27.6447C346.097 27.5089 345.932 27.4013 345.751 27.3278C345.57 27.2543 345.375 27.2165 345.179 27.2165H342.19C341.993 27.2165 341.799 27.2543 341.618 27.3278C341.436 27.4013 341.271 27.5089 341.133 27.6447C340.994 27.7804 340.884 27.9416 340.809 28.1189C340.733 28.2963 340.695 28.4864 340.695 28.6783V43.9084C338.484 44.2592 336.473 45.3666 335.02 47.0329C333.567 48.6991 332.767 50.816 332.762 53.0059C332.756 55.1958 333.547 57.3164 334.992 58.9893C336.436 60.6623 338.442 61.7789 340.651 62.1401C342.859 62.5012 345.127 62.0833 347.05 60.9609C348.973 59.8386 350.426 58.0848 351.149 56.0123C351.872 53.9398 351.82 51.6833 351 49.6455C350.18 47.6076 348.647 45.9207 346.673 44.8858H346.674Z" fill="#F01722"/>
<path d="M342.688 57.4234C345.164 57.4234 347.172 55.4603 347.172 53.0387C347.172 50.6171 345.164 48.654 342.688 48.654C340.212 48.654 338.205 50.6171 338.205 53.0387C338.205 55.4603 340.212 57.4234 342.688 57.4234Z" fill="white"/>
<defs>
<clipPath id="clip0">
<rect width="538.728" height="261.313" fill="white" transform="translate(0.0666504 0.528427)"/>
</clipPath>
</defs>
</svg>
