<svg width="375" height="215" viewBox="0 0 375 215" fill="none" xmlns="http://www.w3.org/2000/svg">
<g clip-path="url(#clip0)">
<path d="M175.055 21.4058C176.09 21.4058 176.93 20.5849 176.93 19.5723C176.93 18.5598 176.09 17.7389 175.055 17.7389C174.019 17.7389 173.18 18.5598 173.18 19.5723C173.18 20.5849 174.019 21.4058 175.055 21.4058Z" fill="#F2F2F2"/>
<path d="M116.177 80.8086C116.591 80.8086 116.927 80.4802 116.927 80.0752C116.927 79.6702 116.591 79.3418 116.177 79.3418C115.763 79.3418 115.427 79.6702 115.427 80.0752C115.427 80.4802 115.763 80.8086 116.177 80.8086Z" fill="#F2F2F2"/>
<path d="M226.807 115.277C227.221 115.277 227.557 114.949 227.557 114.543C227.557 114.138 227.221 113.81 226.807 113.81C226.393 113.81 226.057 114.138 226.057 114.543C226.057 114.949 226.393 115.277 226.807 115.277Z" fill="#F2F2F2"/>
<path d="M31.4229 106.11C31.8371 106.11 32.1729 105.781 32.1729 105.376C32.1729 104.971 31.8371 104.643 31.4229 104.643C31.0087 104.643 30.6729 104.971 30.6729 105.376C30.6729 105.781 31.0087 106.11 31.4229 106.11Z" fill="#F2F2F2"/>
<path d="M323.937 80.0752C324.351 80.0752 324.687 79.7469 324.687 79.3418C324.687 78.9368 324.351 78.6085 323.937 78.6085C323.522 78.6085 323.187 78.9368 323.187 79.3418C323.187 79.7469 323.522 80.0752 323.937 80.0752Z" fill="#F2F2F2"/>
<path d="M83.1753 87.7756C83.5896 87.7756 83.9254 87.4472 83.9254 87.0422C83.9254 86.6372 83.5896 86.3088 83.1753 86.3088C82.7611 86.3088 82.4253 86.6372 82.4253 87.0422C82.4253 87.4472 82.7611 87.7756 83.1753 87.7756Z" fill="#F2F2F2"/>
<path d="M206.181 73.1082C206.595 73.1082 206.931 72.7799 206.931 72.3748C206.931 71.9698 206.595 71.6415 206.181 71.6415C205.767 71.6415 205.431 71.9698 205.431 72.3748C205.431 72.7799 205.767 73.1082 206.181 73.1082Z" fill="#F2F2F2"/>
<path d="M230.932 20.3057C231.346 20.3057 231.682 19.9774 231.682 19.5723C231.682 19.1673 231.346 18.839 230.932 18.839C230.518 18.839 230.182 19.1673 230.182 19.5723C230.182 19.9774 230.518 20.3057 230.932 20.3057Z" fill="#F2F2F2"/>
<path d="M74.9248 106.11H74.1748V106.476H74.9248V106.11Z" fill="#F2F2F2"/>
<path d="M97.0513 50.0071H96.3013V50.3738H97.0513V50.0071Z" fill="#F2F2F2"/>
<path d="M151.054 91.8091H150.304V92.1758H151.054V91.8091Z" fill="#F2F2F2"/>
<path d="M294.31 107.943H293.56V108.31H294.31V107.943Z" fill="#F2F2F2"/>
<path d="M249.683 51.8405H248.933V52.2072H249.683V51.8405Z" fill="#F2F2F2"/>
<path d="M80.4833 133.661H79.1636V184.631H80.4833V133.661Z" fill="#3F3D56"/>
<path d="M92.6624 124.756C92.7464 142.579 79.922 157.085 79.922 157.085C79.922 157.085 66.9614 142.695 66.8774 124.872C66.7934 107.049 79.6178 92.5425 79.6178 92.5425C79.6178 92.5425 92.5784 106.933 92.6624 124.756Z" fill="#3F3D56"/>
<path d="M64.1939 118.551H62.4829V184.631H64.1939V118.551Z" fill="#3F3D56"/>
<path d="M79.9839 111.571C80.0928 134.678 63.4665 153.485 63.4665 153.485C63.4665 153.485 46.6637 134.829 46.5547 111.722C46.4458 88.6151 63.0721 69.8081 63.0721 69.8081C63.0721 69.8081 79.875 88.4644 79.9839 111.571Z" fill="#3F3D56"/>
<path d="M263.117 133.661H261.797V184.631H263.117V133.661Z" fill="#6C63FF"/>
<path d="M275.296 140.157C275.38 157.98 262.556 172.486 262.556 172.486C262.556 172.486 249.595 158.096 249.511 140.273C249.427 122.45 262.252 107.943 262.252 107.943C262.252 107.943 275.212 122.334 275.296 140.157Z" fill="#3F3D56"/>
<path d="M48.9818 133.661H47.6621V184.631H48.9818V133.661Z" fill="#3F3D56"/>
<path d="M61.161 124.756C61.245 142.579 48.4205 157.085 48.4205 157.085C48.4205 157.085 35.4599 142.695 35.3759 124.872C35.2919 107.049 48.1163 92.5425 48.1163 92.5425C48.1163 92.5425 61.077 106.933 61.161 124.756Z" fill="#3F3D56"/>
<path d="M165.237 133.661H163.917V184.631H165.237V133.661Z" fill="#3F3D56"/>
<path d="M177.416 124.756C177.5 142.579 164.676 157.085 164.676 157.085C164.676 157.085 151.715 142.695 151.631 124.872C151.547 107.049 164.372 92.5425 164.372 92.5425C164.372 92.5425 177.332 106.933 177.416 124.756Z" fill="#3F3D56"/>
<path d="M148.948 118.551H147.237V184.631H148.948V118.551Z" fill="#3F3D56"/>
<path d="M164.738 111.571C164.847 134.678 148.22 153.485 148.22 153.485C148.22 153.485 131.418 134.829 131.309 111.722C131.2 88.6151 147.826 69.8081 147.826 69.8081C147.826 69.8081 164.629 88.4644 164.738 111.571Z" fill="#3F3D56"/>
<path d="M133.736 133.661H132.416V184.631H133.736V133.661Z" fill="#3F3D56"/>
<path d="M145.915 124.756C145.999 142.579 133.174 157.085 133.174 157.085C133.174 157.085 120.214 142.695 120.13 124.872C120.046 107.049 132.87 92.5425 132.87 92.5425C132.87 92.5425 145.831 106.933 145.915 124.756Z" fill="#3F3D56"/>
<path d="M271.65 157.398L249.597 137.572C249.538 138.462 249.507 139.363 249.511 140.273C249.595 158.096 262.556 172.486 262.556 172.486C266.329 167.921 269.394 162.837 271.65 157.398Z" fill="#6C63FF"/>
<path d="M107.498 180.085C108.253 182.815 110.841 184.507 110.841 184.507C110.841 184.507 112.204 181.77 111.449 179.039C110.693 176.309 108.105 174.617 108.105 174.617C108.105 174.617 106.742 177.354 107.498 180.085Z" fill="#3F3D56"/>
<path d="M108.608 179.498C110.681 181.471 110.934 184.505 110.934 184.505C110.934 184.505 107.826 184.339 105.753 182.365C103.68 180.392 103.426 177.358 103.426 177.358C103.426 177.358 106.534 177.524 108.608 179.498Z" fill="#3F3D56"/>
<path d="M214.003 180.085C214.758 182.815 217.346 184.507 217.346 184.507C217.346 184.507 218.709 181.77 217.954 179.039C217.198 176.309 214.61 174.617 214.61 174.617C214.61 174.617 213.247 177.354 214.003 180.085Z" fill="#6C63FF"/>
<path d="M215.113 179.498C217.186 181.471 217.439 184.505 217.439 184.505C217.439 184.505 214.331 184.339 212.258 182.365C210.184 180.392 209.931 177.358 209.931 177.358C209.931 177.358 213.039 177.524 215.113 179.498Z" fill="#6C63FF"/>
<path d="M23.4938 180.085C24.2494 182.815 26.8373 184.507 26.8373 184.507C26.8373 184.507 28.2003 181.77 27.4447 179.039C26.6892 176.309 24.1012 174.617 24.1012 174.617C24.1012 174.617 22.7382 177.354 23.4938 180.085Z" fill="#3F3D56"/>
<path d="M24.6039 179.498C26.6772 181.471 26.9304 184.505 26.9304 184.505C26.9304 184.505 23.8222 184.339 21.7489 182.365C19.6756 180.392 19.4224 177.358 19.4224 177.358C19.4224 177.358 22.5306 177.524 24.6039 179.498Z" fill="#3F3D56"/>
<path d="M140.008 81.2352L176.201 134.647C177.009 131.409 177.418 128.089 177.417 124.756C177.376 116.065 174.273 108.191 171.104 102.403L169.43 102.81L171.004 102.222C169.139 98.7821 166.916 95.5385 164.372 92.5425C164.372 92.5425 163.449 93.5875 162.1 95.4593C157.345 80.3783 147.826 69.8081 147.826 69.8081C144.855 73.3661 142.237 77.1924 140.008 81.2352Z" fill="#6C63FF"/>
<path opacity="0.1" d="M348.249 182.47C348.535 182.47 348.81 182.359 349.012 182.161C349.215 181.963 349.328 181.694 349.328 181.415C349.328 181.135 349.215 180.866 349.012 180.669C348.81 180.471 348.535 180.359 348.249 180.359H339.376C339.662 180.919 339.71 181.567 339.507 182.161C339.305 182.754 338.87 183.245 338.297 183.525C338.297 183.805 338.411 184.073 338.613 184.271C338.816 184.469 339.09 184.58 339.376 184.58H348.249C348.535 184.58 348.81 184.469 349.012 184.271C349.215 184.073 349.328 183.805 349.328 183.525C349.328 183.245 349.215 182.977 349.012 182.779C348.81 182.581 348.535 182.47 348.249 182.47Z" fill="#F2F2F2"/>
<path d="M327.16 180.293C327.312 186.047 323.752 184.58 319.437 184.58C315.121 184.58 311.561 185.313 311.532 180.293C311.518 177.82 315.056 177.282 319.372 177.282C323.687 177.282 327.095 177.821 327.16 180.293Z" fill="#3F3D56"/>
<path d="M337.257 182.567C337.187 182.53 337.111 182.506 337.033 182.496C336.641 182.435 336.253 182.354 335.871 182.253C335.486 182.151 335.133 181.959 334.842 181.694C334.733 181.569 334.612 181.455 334.479 181.354C334.412 181.305 334.332 181.275 334.248 181.269C334.164 181.264 334.081 181.282 334.007 181.321C333.992 181.333 333.978 181.346 333.965 181.36C333.912 181.325 333.858 181.291 333.804 181.256C333.519 181.072 333.232 180.891 332.944 180.711L332.932 180.704C332.94 180.659 332.94 180.614 332.933 180.57C332.882 180.424 332.781 180.3 332.646 180.221C333.018 180.218 333.392 180.185 333.761 180.146C334.114 180.152 334.454 180.022 334.709 179.784C334.747 179.743 334.77 179.69 334.775 179.635C334.775 179.521 334.655 179.446 334.547 179.403C334.404 179.346 334.255 179.303 334.102 179.275C333.996 179.26 333.89 179.239 333.787 179.21C333.694 179.178 333.605 179.136 333.521 179.088C333.338 178.989 333.154 178.89 332.971 178.792C332.893 178.755 332.821 178.706 332.758 178.647C332.665 178.551 332.624 178.414 332.528 178.319C332.441 178.232 332.086 178.117 332.036 178.296C332.015 178.367 332.092 178.445 332.101 178.524C331.979 178.449 331.851 178.381 331.721 178.32C331.728 178.304 331.737 178.289 331.743 178.273C331.135 177.796 330.652 177.184 330.333 176.488C330.388 176.489 330.442 176.493 330.497 176.492C330.59 176.501 330.683 176.479 330.761 176.429C330.793 176.401 330.819 176.365 330.835 176.325C330.851 176.286 330.858 176.243 330.855 176.2C330.848 176.115 330.826 176.032 330.791 175.954C330.714 175.719 330.59 175.501 330.426 175.313C330.268 175.164 330.088 175.039 329.892 174.942L329.86 174.924C329.847 174.885 329.834 174.845 329.818 174.806C329.7 174.565 329.566 174.332 329.417 174.108C329.208 173.733 329.054 173.331 328.959 172.914C328.924 172.66 328.824 172.419 328.669 172.212C328.383 171.903 327.892 171.911 327.469 171.958C327.228 171.984 326.987 172.02 326.747 172.056C326.745 172.05 326.745 172.044 326.742 172.038C326.712 171.983 326.693 171.922 326.687 171.86C326.693 171.809 326.704 171.759 326.721 171.71C326.734 171.65 326.731 171.587 326.713 171.528C326.694 171.469 326.661 171.416 326.616 171.373C326.606 171.363 326.596 171.353 326.586 171.342C326.613 171.281 326.637 171.22 326.659 171.158C326.679 171.135 326.694 171.108 326.703 171.08C326.712 171.051 326.715 171.021 326.712 170.991C326.755 170.84 326.778 170.685 326.78 170.529C326.731 170.184 326.718 169.835 326.742 169.487C326.73 169.401 326.698 169.319 326.649 169.247C326.64 169.235 326.625 169.23 326.615 169.219C326.688 169.125 326.773 169.039 326.867 168.964C327.052 168.824 327.249 168.702 327.457 168.598C327.507 168.571 327.577 168.552 327.624 168.521C327.697 168.533 327.771 168.541 327.845 168.543C328.12 168.545 328.391 168.481 328.634 168.356C328.878 168.232 329.087 168.051 329.242 167.829C329.398 167.608 329.496 167.353 329.527 167.086C329.559 166.819 329.523 166.548 329.423 166.298C329.499 166.28 329.571 166.247 329.634 166.202C329.697 166.156 329.75 166.099 329.79 166.033C329.873 165.893 329.922 165.737 329.935 165.576C329.948 165.514 329.948 165.451 329.936 165.389C329.924 165.327 329.9 165.268 329.864 165.215C329.801 165.155 329.728 165.106 329.649 165.068C329.54 165.001 329.449 164.911 329.382 164.803C329.334 164.727 329.3 164.643 329.258 164.564C329.187 164.417 329.076 164.292 328.938 164.203C328.8 164.113 328.639 164.062 328.474 164.056C328.316 164.075 328.16 164.106 328.007 164.147C327.482 164.237 326.911 163.965 326.424 164.177C326.304 164.234 326.193 164.306 326.093 164.393C325.956 164.503 325.824 164.62 325.698 164.742C325.588 164.834 325.505 164.952 325.457 165.085C325.391 165.328 325.548 165.6 325.448 165.831C325.413 165.897 325.373 165.96 325.326 166.019C325.215 166.177 325.335 166.796 325.323 166.987C325.309 167.081 325.333 167.176 325.391 167.252C325.405 167.267 325.422 167.279 325.44 167.289C324.623 167.574 323.824 167.906 323.048 168.283C322.115 168.724 321.341 169.431 320.828 170.311C320.696 170.562 320.596 170.828 320.476 171.085C320.317 171.429 320.125 171.756 319.933 172.082C319.698 172.481 319.464 172.88 319.193 173.255C319.038 173.454 318.895 173.662 318.764 173.876C318.761 173.908 318.76 173.939 318.761 173.971C318.767 174 318.764 174.031 318.753 174.059C318.741 174.075 318.726 174.089 318.708 174.099C318.69 174.108 318.671 174.114 318.65 174.116L318.644 174.132C318.583 174.325 318.532 174.521 318.492 174.719C318.412 175.034 318.284 175.338 318.235 175.659C318.207 175.7 318.191 175.747 318.19 175.796C318.188 175.845 318.202 175.893 318.228 175.935C318.255 175.976 318.293 176.009 318.339 176.029C318.384 176.05 318.435 176.057 318.485 176.049C318.766 176.171 319.036 176.314 319.306 176.458C319.302 176.478 319.296 176.496 319.293 176.516C319.284 176.72 319.335 176.923 319.439 177.1C319.542 177.278 319.695 177.423 319.88 177.519C320.252 177.705 320.66 177.813 321.077 177.837C321.239 177.856 321.402 177.865 321.564 177.881C321.8 178.009 322.052 178.109 322.313 178.178C322.371 178.194 322.43 178.203 322.489 178.205C322.568 178.199 322.646 178.177 322.715 178.139C322.784 178.1 322.844 178.047 322.89 177.984C324.284 178.059 325.683 178.031 327.073 177.9C327.458 177.813 327.862 177.874 328.202 178.071C328.503 178.311 328.564 178.736 328.788 179.046C328.951 179.238 329.134 179.412 329.333 179.566C329.731 179.977 330.082 180.429 330.381 180.912C330.683 181.401 331.12 181.796 331.643 182.051C331.737 181.905 331.873 181.789 332.034 181.718C332.076 181.694 332.116 181.666 332.157 181.639C332.212 181.727 332.276 181.809 332.348 181.883C332.402 181.94 332.456 182 332.506 182.062C332.504 182.062 332.503 182.061 332.501 182.062C332.428 182.073 332.404 182.162 332.395 182.234C332.363 182.509 332.331 182.784 332.299 183.059C332.288 183.113 332.291 183.169 332.31 183.222C332.345 183.278 332.398 183.322 332.462 183.345C332.723 183.467 333.005 183.54 333.294 183.559C333.439 183.569 333.585 183.565 333.73 183.578C333.968 183.608 334.204 183.654 334.435 183.715C335.065 183.856 335.713 183.905 336.358 183.862C336.491 183.859 336.623 183.835 336.748 183.79C336.896 183.721 337.027 183.621 337.133 183.499C337.267 183.374 337.367 183.218 337.423 183.045C337.448 182.958 337.446 182.866 337.417 182.78C337.387 182.695 337.331 182.62 337.257 182.567Z" fill="#3F3D56"/>
<path d="M326.882 164.147C326.944 164.136 327.005 164.119 327.067 164.104C326.869 164.08 326.669 164.099 326.48 164.159C326.614 164.171 326.749 164.167 326.882 164.147Z" fill="#FF6584"/>
<path d="M328.133 164.564C328.175 164.643 328.209 164.727 328.257 164.803C328.323 164.911 328.415 165.001 328.524 165.068C328.603 165.106 328.676 165.155 328.739 165.215C328.775 165.268 328.799 165.327 328.811 165.389C328.823 165.451 328.823 165.514 328.81 165.576C328.797 165.737 328.748 165.893 328.665 166.033C328.625 166.099 328.572 166.156 328.509 166.202C328.446 166.247 328.374 166.28 328.298 166.298C328.413 166.565 328.453 166.857 328.413 167.144C328.374 167.432 328.256 167.703 328.072 167.93C327.888 168.158 327.645 168.332 327.368 168.436C327.092 168.54 326.791 168.57 326.499 168.521C326.451 168.552 326.382 168.571 326.332 168.598C326.124 168.702 325.927 168.824 325.742 168.964C325.648 169.039 325.563 169.125 325.49 169.219C325.5 169.23 325.515 169.235 325.524 169.246C325.573 169.319 325.605 169.401 325.617 169.487C325.593 169.835 325.606 170.184 325.655 170.529C325.653 170.685 325.63 170.841 325.587 170.991C325.59 171.021 325.587 171.051 325.578 171.08C325.569 171.108 325.554 171.135 325.534 171.158C325.512 171.22 325.487 171.281 325.461 171.342C325.471 171.353 325.481 171.363 325.491 171.373C325.536 171.416 325.569 171.469 325.588 171.528C325.606 171.587 325.609 171.65 325.596 171.71C325.579 171.759 325.568 171.809 325.562 171.86C325.568 171.922 325.587 171.983 325.617 172.038C325.62 172.044 325.62 172.05 325.622 172.056C325.862 172.02 326.102 171.984 326.344 171.958C326.463 171.944 326.582 171.937 326.702 171.935C326.693 171.911 326.688 171.886 326.687 171.86C326.693 171.809 326.704 171.759 326.721 171.71C326.734 171.65 326.731 171.587 326.713 171.528C326.694 171.469 326.661 171.416 326.616 171.373C326.606 171.363 326.596 171.353 326.586 171.342C326.613 171.281 326.637 171.22 326.659 171.158C326.679 171.135 326.694 171.108 326.703 171.08C326.712 171.051 326.715 171.021 326.712 170.991C326.755 170.841 326.778 170.685 326.78 170.529C326.731 170.184 326.718 169.835 326.742 169.487C326.73 169.401 326.698 169.319 326.649 169.246C326.64 169.235 326.625 169.23 326.615 169.219C326.688 169.125 326.773 169.039 326.867 168.964C327.052 168.824 327.249 168.702 327.457 168.598C327.507 168.571 327.577 168.552 327.624 168.521C327.697 168.533 327.771 168.541 327.845 168.543C328.12 168.545 328.391 168.481 328.634 168.356C328.878 168.232 329.087 168.051 329.242 167.829C329.398 167.608 329.496 167.353 329.527 167.086C329.559 166.819 329.523 166.548 329.423 166.298C329.499 166.28 329.571 166.247 329.634 166.202C329.697 166.156 329.75 166.099 329.79 166.033C329.873 165.893 329.922 165.737 329.935 165.576C329.948 165.514 329.948 165.451 329.936 165.389C329.924 165.327 329.9 165.268 329.864 165.215C329.801 165.155 329.728 165.106 329.649 165.068C329.54 165.001 329.449 164.911 329.382 164.803C329.334 164.727 329.3 164.643 329.258 164.564C329.187 164.417 329.076 164.292 328.938 164.203C328.8 164.113 328.639 164.062 328.474 164.056C328.316 164.075 328.16 164.106 328.007 164.147C327.921 164.16 327.834 164.166 327.747 164.163C327.911 164.26 328.044 164.398 328.133 164.564Z" fill="#FF6584"/>
<path d="M337.257 182.567C337.187 182.53 337.111 182.506 337.033 182.496C336.641 182.435 336.253 182.354 335.871 182.253C335.486 182.151 335.133 181.959 334.842 181.694C334.733 181.569 334.612 181.455 334.479 181.354C334.412 181.305 334.332 181.275 334.248 181.269C334.164 181.264 334.081 181.281 334.007 181.321C333.992 181.333 333.978 181.346 333.965 181.36C333.912 181.325 333.858 181.291 333.804 181.256C333.519 181.072 333.232 180.891 332.944 180.711L332.932 180.704C332.94 180.659 332.94 180.614 332.933 180.57C332.882 180.424 332.781 180.3 332.646 180.221C333.018 180.218 333.392 180.185 333.761 180.146C334.114 180.152 334.454 180.022 334.709 179.784C334.747 179.743 334.77 179.69 334.775 179.635C334.775 179.521 334.655 179.446 334.547 179.403C334.404 179.346 334.255 179.303 334.102 179.275C333.996 179.26 333.89 179.239 333.787 179.21C333.694 179.178 333.605 179.136 333.521 179.088C333.338 178.989 333.154 178.89 332.971 178.792C332.893 178.755 332.821 178.706 332.758 178.647C332.665 178.551 332.624 178.414 332.529 178.319C332.441 178.232 332.086 178.117 332.036 178.296C332.016 178.367 332.092 178.445 332.101 178.524C331.979 178.449 331.852 178.381 331.721 178.32C331.728 178.304 331.737 178.289 331.743 178.273C331.135 177.796 330.652 177.184 330.333 176.488C330.388 176.489 330.442 176.493 330.497 176.492C330.59 176.501 330.683 176.479 330.761 176.429C330.793 176.401 330.819 176.365 330.835 176.325C330.851 176.286 330.858 176.243 330.855 176.2C330.848 176.115 330.826 176.032 330.792 175.954C330.714 175.719 330.59 175.501 330.427 175.313C330.268 175.164 330.088 175.039 329.892 174.942L329.86 174.924C329.847 174.885 329.834 174.845 329.818 174.806C329.7 174.565 329.566 174.332 329.417 174.108C329.208 173.733 329.054 173.331 328.959 172.914C328.924 172.66 328.824 172.419 328.669 172.212C328.383 171.903 327.892 171.911 327.469 171.958C327.374 171.968 327.281 171.984 327.186 171.996C327.323 172.036 327.447 172.11 327.544 172.212C327.699 172.419 327.799 172.66 327.834 172.914C327.929 173.331 328.083 173.733 328.292 174.108C328.441 174.332 328.575 174.565 328.693 174.806C328.709 174.845 328.722 174.885 328.735 174.924L328.767 174.942C328.963 175.039 329.143 175.164 329.301 175.313C329.465 175.501 329.589 175.719 329.666 175.954C329.701 176.032 329.723 176.115 329.73 176.2C329.733 176.243 329.726 176.286 329.71 176.325C329.694 176.365 329.668 176.401 329.636 176.429C329.558 176.479 329.465 176.501 329.372 176.492C329.317 176.493 329.263 176.489 329.208 176.488C329.527 177.184 330.01 177.796 330.618 178.273C330.612 178.289 330.603 178.304 330.596 178.32C330.726 178.381 330.854 178.449 330.976 178.524C330.967 178.445 330.89 178.367 330.911 178.296C330.961 178.117 331.316 178.232 331.403 178.319C331.499 178.414 331.54 178.551 331.633 178.647C331.696 178.706 331.768 178.755 331.846 178.792C332.029 178.89 332.213 178.989 332.396 179.088C332.48 179.136 332.569 179.178 332.662 179.21C332.765 179.239 332.871 179.26 332.977 179.275C333.13 179.303 333.279 179.346 333.422 179.403C333.53 179.446 333.65 179.521 333.65 179.635C333.645 179.69 333.622 179.743 333.584 179.784C333.329 180.022 332.989 180.152 332.636 180.146C332.267 180.185 331.893 180.218 331.521 180.221C331.656 180.3 331.757 180.424 331.808 180.57C331.815 180.614 331.815 180.659 331.807 180.704L331.819 180.711C332.107 180.891 332.394 181.072 332.679 181.256C332.733 181.291 332.787 181.325 332.84 181.36C332.853 181.346 332.867 181.333 332.882 181.321C332.956 181.281 333.039 181.264 333.123 181.269C333.207 181.275 333.287 181.305 333.354 181.354C333.487 181.455 333.608 181.569 333.717 181.694C334.008 181.959 334.361 182.151 334.746 182.253C335.128 182.354 335.516 182.435 335.908 182.496C335.986 182.506 336.062 182.53 336.132 182.567C336.206 182.62 336.262 182.695 336.292 182.78C336.321 182.866 336.323 182.958 336.298 183.045C336.242 183.218 336.142 183.374 336.008 183.499C335.902 183.621 335.771 183.721 335.623 183.79C335.532 183.824 335.435 183.845 335.338 183.852C335.677 183.881 336.018 183.884 336.358 183.862C336.491 183.859 336.623 183.835 336.748 183.79C336.896 183.721 337.027 183.621 337.133 183.499C337.267 183.374 337.367 183.218 337.423 183.045C337.449 182.958 337.446 182.866 337.417 182.78C337.387 182.695 337.331 182.62 337.257 182.567Z" fill="#FF6584"/>
<path d="M331.018 181.649C331.036 181.665 331.055 181.683 331.074 181.699C331.06 181.679 331.044 181.66 331.032 181.639L331.018 181.649Z" fill="#FF6584"/>
<path d="M347.77 178.601C347.77 182.486 345.998 181.415 343.813 181.415C341.627 181.415 339.856 182.486 339.856 178.601C339.856 174.716 343.813 167.346 343.813 167.346C343.813 167.346 347.77 174.716 347.77 178.601Z" fill="#FF6584"/>
<path opacity="0.1" d="M345.611 180.087C345.611 181.853 344.806 181.366 343.813 181.366C342.819 181.366 342.014 181.853 342.014 180.087C342.014 178.321 343.813 174.971 343.813 174.971C343.813 174.971 345.611 178.321 345.611 180.087Z" fill="black"/>
<path d="M348.772 168.22C348.772 168.22 349.594 167.384 349.578 166.565L348.772 168.22Z" fill="#FF6584"/>
<path d="M340.348 161.256C340.348 161.256 340.005 160.146 339.266 159.759L340.348 161.256Z" fill="#FF6584"/>
<path d="M332.098 146.222C332.098 146.222 331.755 145.112 331.015 144.725L332.098 146.222Z" fill="#FF6584"/>
<path d="M341.848 166.39C341.848 166.39 341.505 165.28 340.766 164.892L341.848 166.39Z" fill="#FF6584"/>
<path d="M340.723 148.422C340.723 148.422 340.38 147.312 339.641 146.925L340.723 148.422Z" fill="#FF6584"/>
<path d="M338.473 155.022C338.473 155.022 338.13 153.912 337.391 153.525L338.473 155.022Z" fill="#FF6584"/>
<path d="M348.022 179.587C348.022 179.587 348.844 178.752 348.828 177.932L348.022 179.587Z" fill="#FF6584"/>
<path d="M349.522 173.354C349.522 173.354 350.345 172.518 350.328 171.698L349.522 173.354Z" fill="#FF6584"/>
<path d="M339.253 172.305L330.253 175.239L330.371 175.587L339.372 172.654L339.253 172.305Z" fill="#FF6584"/>
<path d="M338.6 172.655C338.937 173.946 338.37 173.638 337.853 173.743C337.336 173.847 337.437 174.313 336.726 173.034C336.234 172.15 336.956 172.052 337.473 171.947C337.99 171.843 338.369 171.774 338.6 172.655Z" fill="#FF6584"/>
<path opacity="0.1" d="M210.284 102.228L210.284 102.227L202.101 94.8709L202.028 94.8889L198.751 91.9763L198.593 91.9312L198.763 91.8678L163.917 60.5409L130.265 30.2861L113.117 39.1797L111.714 39.4833L132.264 69.8081L210.036 184.58H301.886L210.284 102.228Z" fill="#F2F2F2"/>
<path d="M120.302 44.1402C125.894 44.1402 130.428 39.7076 130.428 34.2397C130.428 28.7718 125.894 24.3392 120.302 24.3392C114.71 24.3392 110.177 28.7718 110.177 34.2397C110.177 39.7076 114.71 44.1402 120.302 44.1402Z" fill="#FFC9FA"/>
</g>
<path d="M237.116 48.8953C244.093 48.8953 249.749 43.364 249.749 36.5406C249.749 29.7173 244.093 24.1859 237.116 24.1859C230.139 24.1859 224.483 29.7173 224.483 36.5406C224.483 43.364 230.139 48.8953 237.116 48.8953Z" fill="#FFCCCC"/>
<path d="M236.299 105.803C236.055 105.06 235.974 104.276 236.062 103.501C236.15 102.725 236.404 101.977 236.809 101.305C237.213 100.633 237.758 100.051 238.408 99.5995C239.057 99.1476 239.798 98.8351 240.58 98.6825C240.828 98.6359 241.078 98.6063 241.33 98.5941L254.638 77.7071L242.484 66.4049C242.014 65.9746 241.636 65.4571 241.372 64.8824C241.109 64.3078 240.965 63.6876 240.949 63.058C240.933 62.4284 241.045 61.802 241.279 61.2153C241.514 60.6286 241.865 60.0934 242.313 59.6409C242.761 59.1884 243.296 58.8275 243.888 58.5795C244.48 58.3315 245.117 58.2012 245.761 58.1962C246.405 58.1913 247.043 58.3118 247.639 58.5507C248.235 58.7895 248.776 59.142 249.231 59.5876L266.014 75.774L266.048 75.8142C266.567 76.5867 266.818 77.5024 266.763 78.4253C266.708 79.3481 266.35 80.229 265.743 80.9373L247.097 102.501C247.152 102.674 247.199 102.85 247.236 103.027C247.391 103.792 247.38 104.58 247.203 105.34C247.026 106.1 246.686 106.815 246.207 107.438C245.727 108.061 245.118 108.578 244.42 108.955C243.722 109.332 242.951 109.56 242.156 109.625C241.996 109.639 241.836 109.645 241.677 109.645C240.481 109.641 239.317 109.267 238.351 108.576C237.385 107.886 236.667 106.916 236.299 105.803Z" fill="#FFCCCC"/>
<path d="M216.309 208.487H210.003L207.003 184.7H216.31L216.309 208.487Z" fill="#FFCCCC"/>
<path d="M218.174 214.717H197.327V214.211C197.327 213.162 197.539 212.122 197.949 211.153C198.36 210.183 198.962 209.302 199.721 208.56C200.479 207.818 201.38 207.23 202.372 206.828C203.363 206.427 204.426 206.22 205.499 206.22H218.175L218.174 214.717Z" fill="#33334B"/>
<path d="M278.986 199.96L273.568 203.116L258.547 184.179L266.544 179.522L278.986 199.96Z" fill="#FFCCCC"/>
<path d="M265.935 214.81L265.672 214.378C264.564 212.557 264.24 210.38 264.773 208.325C265.305 206.271 266.651 204.508 268.513 203.423L279.404 197.081L283.848 204.378L265.935 214.81Z" fill="#33334B"/>
<path d="M206.207 198.011C201.983 149.367 199.469 104.176 214.913 85.7409L215.032 85.5981L241.02 95.7646L241.063 95.8552C241.151 96.0419 249.794 114.634 247.778 127.14L254.188 155.978L275.089 190.204C275.257 190.479 275.364 190.787 275.401 191.106C275.439 191.424 275.407 191.747 275.307 192.053C275.207 192.359 275.042 192.64 274.823 192.879C274.603 193.118 274.334 193.308 274.034 193.437L264.951 197.345C264.438 197.564 263.862 197.594 263.329 197.431C262.795 197.268 262.34 196.922 262.046 196.457L239.309 160.199L226.466 132.389C226.397 132.238 226.278 132.113 226.129 132.035C225.98 131.956 225.808 131.928 225.641 131.954C225.473 131.98 225.319 132.06 225.203 132.18C225.086 132.3 225.014 132.455 224.996 132.62L217.878 198.061C217.818 198.617 217.55 199.132 217.125 199.506C216.7 199.879 216.148 200.086 215.576 200.085H208.515C207.935 200.082 207.378 199.868 206.951 199.484C206.525 199.101 206.26 198.576 206.207 198.011Z" fill="#33334B"/>
<path d="M215.001 86.1266L214.877 86.0687L214.857 85.936C213.886 79.2912 215.035 71.9078 218.272 63.9915C219.868 60.1173 222.834 56.9326 226.629 55.0174C230.425 53.1022 234.797 52.584 238.951 53.5571C241.343 54.1336 243.587 55.1898 245.54 56.6587C247.494 58.1276 249.114 59.9772 250.298 62.0903C251.467 64.1818 252.179 66.4879 252.389 68.8625C252.599 71.2372 252.303 73.6286 251.519 75.8854C247.438 87.5555 242.144 98.4747 242.091 98.5835L241.98 98.8112L215.001 86.1266Z" fill="#F01722"/>
<path d="M196.301 113.685C196.122 112.342 196.442 110.982 197.202 109.851C197.962 108.72 199.112 107.894 200.443 107.522L224.745 61.8944C225.057 61.3676 225.474 60.9072 225.971 60.5406C226.468 60.1741 227.036 59.9087 227.64 59.7602C228.243 59.6117 228.872 59.5832 229.487 59.6762C230.102 59.7692 230.692 59.982 231.222 60.3018C231.752 60.6217 232.211 61.0422 232.572 61.5385C232.932 62.0348 233.188 62.5968 233.323 63.1912C233.457 63.7857 233.469 64.4006 233.357 64.9995C233.245 65.5984 233.011 66.1692 232.669 66.6782L207.793 111.988C207.845 112.263 207.875 112.542 207.883 112.823C207.904 113.589 207.767 114.351 207.479 115.064C207.192 115.777 206.76 116.426 206.209 116.972C205.659 117.517 205.001 117.948 204.276 118.239C203.551 118.53 202.773 118.674 201.989 118.664C201.13 118.652 200.284 118.454 199.513 118.084C198.741 117.714 198.062 117.182 197.526 116.526C196.854 115.709 196.429 114.725 196.299 113.685H196.301Z" fill="#FFCCCC"/>
<path d="M221.798 29.5615H241.858V21.0102C237.456 19.2995 233.147 17.8445 230.542 21.0102C228.223 21.0102 225.999 21.9111 224.359 23.5148C222.72 25.1185 221.798 27.2935 221.798 29.5615Z" fill="#2F2E41"/>
<path d="M242.969 19.5012C254.961 19.5012 258.318 34.2016 258.318 42.4951C258.318 47.1202 256.179 48.775 252.818 49.334L251.631 43.1425L248.851 49.5994C247.907 49.6038 246.915 49.5861 245.887 49.5676L244.944 47.6694L242.842 49.5335C234.424 49.5459 227.62 50.7457 227.62 42.4942C227.62 34.202 230.564 19.5012 242.969 19.5012Z" fill="#33334B"/>
<path d="M239.395 31.614V20.1743C239.395 20.0388 239.368 19.9046 239.315 19.7795C239.262 19.6543 239.184 19.5405 239.086 19.4447C238.988 19.3489 238.872 19.2729 238.744 19.2211C238.616 19.1692 238.479 19.1425 238.34 19.1425H236.23C236.092 19.1425 235.955 19.1692 235.827 19.2211C235.699 19.2729 235.582 19.3489 235.484 19.4447C235.386 19.5405 235.309 19.6543 235.256 19.7795C235.203 19.9046 235.175 20.0388 235.175 20.1743V30.9241C233.615 31.1717 232.196 31.9533 231.17 33.1294C230.145 34.3055 229.579 35.7997 229.576 37.3454C229.572 38.8911 230.13 40.3878 231.15 41.5686C232.17 42.7495 233.585 43.5376 235.144 43.7925C236.703 44.0474 238.304 43.7524 239.661 42.9602C241.018 42.1681 242.044 40.9302 242.554 39.4673C243.065 38.0045 243.027 36.4119 242.449 34.9735C241.87 33.5351 240.788 32.3445 239.395 31.614H239.395Z" fill="#F01722"/>
<path d="M236.582 40.4634C238.33 40.4634 239.747 39.0778 239.747 37.3685C239.747 35.6593 238.33 34.2737 236.582 34.2737C234.834 34.2737 233.417 35.6593 233.417 37.3685C233.417 39.0778 234.834 40.4634 236.582 40.4634Z" fill="white"/>
<defs>
<clipPath id="clip0">
<rect width="380.249" height="184.442" fill="white" transform="translate(-5.24902 0.305328)"/>
</clipPath>
</defs>
</svg>
